<svg xmlns="http://www.w3.org/2000/svg" xmlns:xlink="http://www.w3.org/1999/xlink" viewBox="0 0 498.9 708.66"><style><![CDATA[.t{fill:var(--svg-text, #141414)!important}.theme-muted-text{fill:var(--svg-muted-text, #646464)!important}.theme-footer-text{fill:var(--svg-footer-text, #aaaaaa)!important}.theme-code-bg{fill:var(--svg-code-bg, #f5f5f5)!important}a:focus,a:focus-visible{outline:0}a:focus-visible>path{fill:transparent!important;stroke:var(--svg-focus-ring, #4b69c6)!important;stroke-width:1.2!important;stroke-linejoin:round;vector-effect:non-scaling-stroke}@media (forced-colors:active){a:focus-visible>path{stroke:CanvasText!important}}@media (prefers-color-scheme:dark){:root{--svg-paper-bg:#161b22;--svg-text:#e8ecf2;--svg-muted-text:#a7b0bf;--svg-footer-text:#7f8897;--svg-code-bg:#222a34;--svg-surface-bg:#1b232d;--svg-code-comment:#8e97a6;--svg-code-green:#86df80;--svg-code-dark-green:#74cad3;--svg-code-red:#ff8d99;--svg-code-blue:#8ca8ff;--svg-code-violet:#c792ea;--svg-code-magenta:#e58bff;--svg-muted-stroke:#a7b0bf;--svg-code-gutter:#6f7783;--svg-focus-ring:#8ca8ff}}a[href^="#cond="]{pointer-events:none}]]></style><path d="M0 0v708.66h498.9V0Z" style="fill:var(--svg-paper-bg, #ffffff)!important"/><g transform="matrix(1 0 0 -1 28.35 36.24)"><use class="t" href="#a"/><use x="5.58" class="t" href="#b"/></g><g transform="translate(42.57 28.95)"><path d="M0 0c0-1.06.86-1.92 1.92-1.92H36.6c1.06 0 1.92.86 1.92 1.92v7.3c0 1.05-.86 1.91-1.92 1.91H1.92A1.9 1.9 0 0 1 0 7.3Z" class="theme-code-bg"/><g transform="matrix(1 0 0 -1 1.92 7.3)"><use class="t" href="#c"/><use x="5.78" class="t" href="#d"/><use x="11.56" class="t" href="#e"/><use x="17.34" class="t" href="#f"/><use x="23.12" class="t" href="#g"/><use x="28.9" class="t" href="#e"/></g><a href="#action=copy:bd8e670a2d" aria-label="Copy" tabindex="-1" role="button"><title>Copy</title>
                                    <path fill="transparent" d="M0 0h38.52v7.29H0z"/>
                                </a></g><g transform="matrix(1 0 0 -1 81.08 36.24)"><use x="3" class="t" href="#h"/><use x="8.28" class="t" href="#i"/><use x="14.16" class="t" href="#h"/><use x="19.61" class="t" href="#j"/><use x="24.74" class="t" href="#k"/><use x="31.12" class="t" href="#l"/><use x="34.91" class="t" href="#h"/><use x="40.27" class="t" href="#m"/></g><g transform="translate(129.04 28.95)"><path d="M0 0c0-1.06.86-1.92 1.92-1.92h17.34c1.06 0 1.92.86 1.92 1.92v7.3c0 1.05-.86 1.91-1.92 1.91H1.92A1.9 1.9 0 0 1 0 7.3Z" class="theme-code-bg"/><g transform="matrix(1 0 0 -1 1.92 7.3)"><use class="t" href="#g"/><use x="5.78" class="t" href="#n"/><use x="11.56" class="t" href="#e"/></g><a href="#action=copy:41217c2fc7" aria-label="Copy" tabindex="-1" role="button"><title>Copy</title>
                                    <path fill="transparent" d="M0 0h21.18v7.29H0z"/>
                                </a></g><g transform="matrix(1 0 0 -1 28.35 51.94)"><use class="t" href="#o"/><use x="5.58" class="t" href="#b"/></g><g transform="matrix(1 0 0 -1 42.57 51.94)"><use class="t" href="#l"/><use x="3.79" class="t" href="#p"/><use x="10.25" class="t" href="#h"/><use x="18.61" class="t" href="#q"/><use x="26.36" class="t" href="#r"/><use x="33.44" class="t" href="#s"/><use x="44.38" class="t" href="#t"/><use x="50.69" class="t" href="#u"/><use x="56.74" class="t" href="#t"/><use x="62.96" class="t" href="#m"/></g><g transform="translate(113.21 44.64)"><path d="M0 0c0-1.06.86-1.92 1.92-1.92h40.46c1.06 0 1.92.86 1.92 1.92v7.3c0 1.05-.86 1.91-1.92 1.91H1.92A1.9 1.9 0 0 1 0 7.3Z" class="theme-code-bg"/><g transform="matrix(1 0 0 -1 1.92 7.3)"><use class="t" href="#v"/><use x="5.78" class="t" href="#w"/><use x="11.56" class="t" href="#x"/><use x="17.34" class="t" href="#v"/><use x="23.12" class="t" href="#v"/><use x="28.9" class="t" href="#v"/><use x="34.68" class="t" href="#v"/></g><a href="#action=copy:67e6c786c9" aria-label="Copy" tabindex="-1" role="button"><title>Copy</title>
                                    <path fill="transparent" d="M0 0h44.3v7.29H0z"/>
                                </a></g><g transform="matrix(1 0 0 -1 157.5 51.94)"><use x="3" class="t" href="#y"/><use x="6.72" class="t" href="#z"/><use x="11.09" class="t" href="#u"/><use x="17.14" class="t" href="#A"/></g><g transform="translate(187.12 44.64)"><path d="M0 0c0-1.06.86-1.92 1.92-1.92h28.9c1.06 0 1.92.86 1.92 1.92v7.3c0 1.05-.86 1.91-1.92 1.91H1.92A1.9 1.9 0 0 1 0 7.3Z" class="theme-code-bg"/><g transform="matrix(1 0 0 -1 1.92 7.3)"><use class="t" href="#B"/><use x="5.78" class="t" href="#C"/><use x="11.56" class="t" href="#D"/><use x="17.34" class="t" href="#E"/><use x="23.12" class="t" href="#F"/></g><a href="#action=copy:2cd2de3e88" aria-label="Copy" tabindex="-1" role="button"><title>Copy</title>
                                    <path fill="transparent" d="M0 0h32.74v7.29H0z"/>
                                </a></g><g transform="matrix(1 0 0 -1 219.86 51.94)"><use x="3" class="t" href="#G"/><use x="6.25" class="t" href="#H"/><use x="12.76" class="t" href="#l"/><use x="16.55" class="t" href="#u"/></g><g transform="translate(245.46 44.64)"><path d="M0 0c0-1.06.86-1.92 1.92-1.92h17.34c1.06 0 1.92.86 1.92 1.92v7.3c0 1.05-.86 1.91-1.92 1.91H1.92A1.9 1.9 0 0 1 0 7.3Z" class="theme-code-bg"/><g transform="matrix(1 0 0 -1 1.92 7.3)"><use class="t" href="#C"/><use x="5.78" class="t" href="#I"/><use x="11.56" class="t" href="#E"/></g><a href="#action=copy:23ecfd73cf" aria-label="Copy" tabindex="-1" role="button"><title>Copy</title>
                                    <path fill="transparent" d="M0 0h21.18v7.29H0z"/>
                                </a></g><g transform="matrix(1 0 0 -1 28.35 67.63)"><use class="t" href="#J"/><use x="5.58" class="t" href="#b"/></g><g transform="matrix(1 0 0 -1 42.57 67.63)"><use class="t" href="#h"/><use x="5.28" class="t" href="#i"/><use x="11.16" class="t" href="#h"/><use x="16.61" class="t" href="#j"/><use x="21.74" class="t" href="#k"/><use x="28.12" class="t" href="#l"/><use x="31.91" class="t" href="#G"/><use x="35.16" class="t" href="#u"/><use x="41.21" class="t" href="#H"/><use x="50.71" class="t" href="#j"/><use x="55.85" class="t" href="#u"/><use x="61.9" class="t" href="#H"/><use x="68.4" class="t" href="#l"/><use x="72.19" class="t" href="#G"/><use x="75.44" class="t" href="#H"/><use x="81.95" class="t" href="#k"/><use x="88.32" class="t" href="#h"/><use x="93.68" class="t" href="#m"/><use x="101.36" class="t" href="#K"/><use x="106.85" class="t" href="#l"/></g><g transform="translate(156.2 60.34)"><path d="M0 0c0-1.06.86-1.92 1.92-1.92h40.46c1.06 0 1.92.86 1.92 1.92v7.3c0 1.05-.86 1.91-1.92 1.91H1.92A1.9 1.9 0 0 1 0 7.3Z" class="theme-code-bg"/><g transform="matrix(1 0 0 -1 1.92 7.3)"><use class="t" href="#v"/><use x="5.78" class="t" href="#w"/><use x="11.56" class="t" href="#x"/><use x="17.34" class="t" href="#v"/><use x="23.12" class="t" href="#v"/><use x="28.9" class="t" href="#v"/><use x="34.68" class="t" href="#v"/></g><a href="#action=copy:67e6c786c9" aria-label="Copy" tabindex="-1" role="button"><title>Copy</title>
                                    <path fill="transparent" d="M0 0h44.3v7.29H0z"/>
                                </a></g><g transform="matrix(1 0 0 -1 200.5 67.63)"><use class="t" href="#L"/><use x="5.64" class="t" href="#M"/><use x="14.6" class="t" href="#p"/><use x="21.06" class="t" href="#G"/><use x="24.31" class="t" href="#j"/><use x="29.45" class="t" href="#p"/><use x="38.9" class="t" href="#t"/><use x="45.22" class="t" href="#h"/><use x="50.58" class="t" href="#z"/><use x="55.04" class="t" href="#y"/><use x="58.76" class="t" href="#u"/><use x="64.81" class="t" href="#z"/><use x="69.28" class="t" href="#A"/><use x="78.76" class="t" href="#m"/><use x="86.44" class="t" href="#l"/><use x="90.23" class="t" href="#p"/><use x="96.68" class="t" href="#h"/></g><g transform="translate(305.55 60.34)"><path d="M0 0c0-1.06.86-1.92 1.92-1.92h46.24c1.06 0 1.92.86 1.92 1.92v7.3c0 1.05-.86 1.91-1.92 1.91H1.92A1.9 1.9 0 0 1 0 7.3Z" class="theme-code-bg"/><g transform="matrix(1 0 0 -1 1.92 7.3)"><use class="t" href="#n"/><use x="5.78" class="t" href="#w"/><use x="11.56" class="t" href="#N"/><use x="17.34" class="t" href="#e"/><use x="23.12" class="t" href="#O"/><use x="28.9" class="t" href="#P"/><use x="34.68" class="t" href="#Q"/><use x="40.46" class="t" href="#R"/></g><a href="#action=copy:0b1b447a7b" aria-label="Copy" tabindex="-1" role="button"><title>Copy</title>
                                    <path fill="transparent" d="M0 0h50.08v7.29H0z"/>
                                </a></g><g transform="matrix(1 0 0 -1 355.63 67.63)"><use x="3" class="t" href="#m"/><use x="7.68" class="t" href="#S"/><use x="13.86" class="t" href="#m"/><use x="18.54" class="t" href="#j"/><use x="23.68" class="t" href="#K"/><use x="29.16" class="t" href="#T"/><use x="32.33" class="t" href="#T"/></g><g transform="matrix(1 0 0 -1 28.35 89.93)"><use class="t" href="#U"/><use x="8.34" class="t" href="#H"/><use x="14.84" class="t" href="#V"/><use x="23.92" class="t" href="#l"/><use x="27.71" class="t" href="#p"/><use x="34.16" class="t" href="#K"/><use x="39.65" class="t" href="#l"/><use x="46.44" class="t" href="#G"/><use x="49.69" class="t" href="#m"/><use x="57.37" class="t" href="#l"/><use x="61.16" class="t" href="#p"/><use x="67.62" class="t" href="#h"/><use x="75.98" class="t" href="#h"/><use x="81.35" class="t" href="#H"/><use x="87.85" class="t" href="#V"/><use x="96.92" class="t" href="#u"/><use x="102.97" class="t" href="#y"/><use x="109.69" class="t" href="#l"/><use x="113.48" class="t" href="#p"/><use x="119.94" class="t" href="#h"/><use x="128.3" class="t" href="#m"/><use x="132.98" class="t" href="#l"/><use x="136.78" class="t" href="#u"/><use x="142.82" class="t" href="#z"/><use x="147.47" class="t" href="#S"/><use x="152.94" class="t" href="#b"/></g><g transform="matrix(1 0 0 -1 385.03 122.91)"><use class="theme-muted-text" href="#W"/><use x="5.57" class="theme-muted-text" href="#X"/><use x="10.63" class="theme-muted-text" href="#Y"/><use x="13.34" class="theme-muted-text" href="#Z"/><use x="16.5" class="theme-muted-text" href="#aa"/><use x="21.04" class="theme-muted-text" href="#X"/><use x="28.6" class="theme-muted-text" href="#ab"/><use x="33.64" class="theme-muted-text" href="#ac"/><use x="41.56" class="theme-muted-text" href="#ad"/><use x="46.21" class="theme-muted-text" href="#ae"/><use x="50.86" class="theme-muted-text" href="#ad"/><use x="55.51" class="theme-muted-text" href="#af"/><use x="60.16" class="theme-muted-text" href="#ag"/><use x="63.54" class="theme-muted-text" href="#ae"/><use x="68.19" class="theme-muted-text" href="#ah"/><use x="72.84" class="theme-muted-text" href="#ag"/><use x="76.22" class="theme-muted-text" href="#ae"/><use x="80.87" class="theme-muted-text" href="#ai"/></g><g transform="matrix(1 0 0 -1 28.35 695.4)"><use class="theme-footer-text" href="#aj"/><use x="6.46" class="theme-footer-text" href="#ak"/><use x="12.09" class="theme-footer-text" href="#al"/><use x="18.76" class="theme-footer-text" href="#am"/><use x="23.37" class="theme-footer-text" href="#an"/><use x="26.48" class="theme-footer-text" href="#ao"/><use x="30.79" class="theme-footer-text" href="#ap"/><use x="35.56" class="theme-footer-text" href="#aq"/><use x="43.71" class="theme-footer-text" href="#ak"/><use x="49.34" class="theme-footer-text" href="#ar"/><use x="57.86" class="theme-footer-text" href="#ad"/><use x="62.51" class="theme-footer-text" href="#ae"/><use x="67.16" class="theme-footer-text" href="#ad"/><use x="71.81" class="theme-footer-text" href="#af"/><use x="76.46" class="theme-footer-text" href="#as"/><use x="79.84" class="theme-footer-text" href="#ae"/><use x="84.49" class="theme-footer-text" href="#at"/><use x="89.14" class="theme-footer-text" href="#as"/><use x="92.52" class="theme-footer-text" href="#au"/><use x="97.17" class="theme-footer-text" href="#av"/></g><use class="theme-footer-text" href="#at" transform="matrix(1 0 0 -1 465.9 695.4)"/><defs><symbol id="a" overflow="visible"><use href="/assets/glyphs.f2ad54.svg#g7j"/></symbol><symbol id="b" overflow="visible"><use href="/assets/glyphs.f2ad54.svg#g2n"/></symbol><symbol id="c" overflow="visible"><use href="/assets/glyphs.f2ad54.svg#g5r"/></symbol><symbol id="d" overflow="visible"><use href="/assets/glyphs.f2ad54.svg#g1s"/></symbol><symbol id="e" overflow="visible"><use href="/assets/glyphs.f2ad54.svg#g1t"/></symbol><symbol id="f" overflow="visible"><use href="/assets/glyphs.f2ad54.svg#g4e"/></symbol><symbol id="g" overflow="visible"><use href="/assets/glyphs.f2ad54.svg#gu"/></symbol><symbol id="h" overflow="visible"><use href="/assets/glyphs.f2ad54.svg#g2h"/></symbol><symbol id="i" overflow="visible"><use href="/assets/glyphs.f2ad54.svg#g5s"/></symbol><symbol id="j" overflow="visible"><use href="/assets/glyphs.f2ad54.svg#g2g"/></symbol><symbol id="k" overflow="visible"><use href="/assets/glyphs.f2ad54.svg#g2e"/></symbol><symbol id="l" overflow="visible"><use href="/assets/glyphs.f2ad54.svg#g2o"/></symbol><symbol id="m" overflow="visible"><use href="/assets/glyphs.f2ad54.svg#g2c"/></symbol><symbol id="n" overflow="visible"><use href="/assets/glyphs.f2ad54.svg#gp"/></symbol><symbol id="o" overflow="visible"><use href="/assets/glyphs.f2ad54.svg#gc4"/></symbol><symbol id="p" overflow="visible"><use href="/assets/glyphs.f2ad54.svg#g3r"/></symbol><symbol id="q" overflow="visible"><use href="/assets/glyphs.f2ad54.svg#g5d"/></symbol><symbol id="r" overflow="visible"><use href="/assets/glyphs.f2ad54.svg#g54"/></symbol><symbol id="s" overflow="visible"><use href="/assets/glyphs.f2ad54.svg#g8y"/></symbol><symbol id="t" overflow="visible"><use href="/assets/glyphs.f2ad54.svg#g2q"/></symbol><symbol id="u" overflow="visible"><use href="/assets/glyphs.f2ad54.svg#g2d"/></symbol><symbol id="v" overflow="visible"><use href="/assets/glyphs.f2ad54.svg#g13"/></symbol><symbol id="w" overflow="visible"><use href="/assets/glyphs.f2ad54.svg#g8f"/></symbol><symbol id="x" overflow="visible"><use href="/assets/glyphs.f2ad54.svg#g1n"/></symbol><symbol id="y" overflow="visible"><use href="/assets/glyphs.f2ad54.svg#g3v"/></symbol><symbol id="z" overflow="visible"><use href="/assets/glyphs.f2ad54.svg#g2f"/></symbol><symbol id="A" overflow="visible"><use href="/assets/glyphs.f2ad54.svg#g2j"/></symbol><symbol id="B" overflow="visible"><use href="/assets/glyphs.f2ad54.svg#gav"/></symbol><symbol id="C" overflow="visible"><use href="/assets/glyphs.f2ad54.svg#g8e"/></symbol><symbol id="D" overflow="visible"><use href="/assets/glyphs.f2ad54.svg#g5k"/></symbol><symbol id="E" overflow="visible"><use href="/assets/glyphs.f2ad54.svg#g4d"/></symbol><symbol id="F" overflow="visible"><use href="/assets/glyphs.f2ad54.svg#gaw"/></symbol><symbol id="G" overflow="visible"><use href="/assets/glyphs.f2ad54.svg#g2l"/></symbol><symbol id="H" overflow="visible"><use href="/assets/glyphs.f2ad54.svg#g2m"/></symbol><symbol id="I" overflow="visible"><use href="/assets/glyphs.f2ad54.svg#g7v"/></symbol><symbol id="J" overflow="visible"><use href="/assets/glyphs.f2ad54.svg#gax"/></symbol><symbol id="K" overflow="visible"><use href="/assets/glyphs.f2ad54.svg#g2k"/></symbol><symbol id="L" overflow="visible"><use href="/assets/glyphs.f2ad54.svg#g3z"/></symbol><symbol id="M" overflow="visible"><use href="/assets/glyphs.f2ad54.svg#g51"/></symbol><symbol id="N" overflow="visible"><use href="/assets/glyphs.f2ad54.svg#g47"/></symbol><symbol id="O" overflow="visible"><use href="/assets/glyphs.f2ad54.svg#gbo"/></symbol><symbol id="P" overflow="visible"><use href="/assets/glyphs.f2ad54.svg#g16"/></symbol><symbol id="Q" overflow="visible"><use href="/assets/glyphs.f2ad54.svg#g12"/></symbol><symbol id="R" overflow="visible"><use href="/assets/glyphs.f2ad54.svg#gbp"/></symbol><symbol id="S" overflow="visible"><use href="/assets/glyphs.f2ad54.svg#g2p"/></symbol><symbol id="T" overflow="visible"><use href="/assets/glyphs.f2ad54.svg#g3t"/></symbol><symbol id="U" overflow="visible"><use href="/assets/glyphs.f2ad54.svg#g5e"/></symbol><symbol id="V" overflow="visible"><use href="/assets/glyphs.f2ad54.svg#g41"/></symbol><symbol id="W" overflow="visible"><use href="/assets/glyphs.f2ad54.svg#g42"/></symbol><symbol id="X" overflow="visible"><use href="/assets/glyphs.f2ad54.svg#g43"/></symbol><symbol id="Y" overflow="visible"><use href="/assets/glyphs.f2ad54.svg#g44"/></symbol><symbol id="Z" overflow="visible"><use href="/assets/glyphs.f2ad54.svg#g38"/></symbol><symbol id="aa" overflow="visible"><use href="/assets/glyphs.f2ad54.svg#g8"/></symbol><symbol id="ab" overflow="visible"><use href="/assets/glyphs.f2ad54.svg#g36"/></symbol><symbol id="ac" overflow="visible"><use href="/assets/glyphs.f2ad54.svg#g37"/></symbol><symbol id="ad" overflow="visible"><use href="/assets/glyphs.f2ad54.svg#g30"/></symbol><symbol id="ae" overflow="visible"><use href="/assets/glyphs.f2ad54.svg#g31"/></symbol><symbol id="af" overflow="visible"><use href="/assets/glyphs.f2ad54.svg#g32"/></symbol><symbol id="ag" overflow="visible"><use href="/assets/glyphs.f2ad54.svg#g45"/></symbol><symbol id="ah" overflow="visible"><use href="/assets/glyphs.f2ad54.svg#g34"/></symbol><symbol id="ai" overflow="visible"><use href="/assets/glyphs.f2ad54.svg#g1mx"/></symbol><symbol id="aj" overflow="visible"><use href="/assets/glyphs.f2ad54.svg#g2r"/></symbol><symbol id="ak" overflow="visible"><use href="/assets/glyphs.f2ad54.svg#g2s"/></symbol><symbol id="al" overflow="visible"><use href="/assets/glyphs.f2ad54.svg#g2t"/></symbol><symbol id="am" overflow="visible"><use href="/assets/glyphs.f2ad54.svg#g2u"/></symbol><symbol id="an" overflow="visible"><use href="/assets/glyphs.f2ad54.svg#g2v"/></symbol><symbol id="ao" overflow="visible"><use href="/assets/glyphs.f2ad54.svg#g2w"/></symbol><symbol id="ap" overflow="visible"><use href="/assets/glyphs.f2ad54.svg#g2x"/></symbol><symbol id="aq" overflow="visible"><use href="/assets/glyphs.f2ad54.svg#g2y"/></symbol><symbol id="ar" overflow="visible"><use href="/assets/glyphs.f2ad54.svg#g2z"/></symbol><symbol id="as" overflow="visible"><use href="/assets/glyphs.f2ad54.svg#g33"/></symbol><symbol id="at" overflow="visible"><use href="/assets/glyphs.f2ad54.svg#gc5"/></symbol><symbol id="au" overflow="visible"><use href="/assets/glyphs.f2ad54.svg#g35"/></symbol><symbol id="av" overflow="visible"><use href="/assets/glyphs.f2ad54.svg#g95"/></symbol></defs></svg>