<svg xmlns="http://www.w3.org/2000/svg" xmlns:xlink="http://www.w3.org/1999/xlink" viewBox="0 0 354.33 566.93"><style><![CDATA[.t{fill:var(--svg-text, #141414)!important}.theme-muted-text{fill:var(--svg-muted-text, #646464)!important}.theme-footer-text{fill:var(--svg-footer-text, #aaaaaa)!important}.theme-code-green{fill:var(--svg-code-green, #198810)!important}.theme-code-blue{fill:var(--svg-code-blue, #4b69c6)!important}.theme-code-violet{fill:var(--svg-code-violet, #8b41b1)!important}.theme-muted-stroke{stroke:var(--svg-muted-stroke, #646464)!important}a:focus,a:focus-visible{outline:0}a:focus-visible>path{fill:transparent!important;stroke:var(--svg-focus-ring, #4b69c6)!important;stroke-width:1.2!important;stroke-linejoin:round;vector-effect:non-scaling-stroke}@media (forced-colors:active){a:focus-visible>path{stroke:CanvasText!important}}@media (prefers-color-scheme:dark){:root{--svg-paper-bg:#161b22;--svg-text:#e8ecf2;--svg-muted-text:#a7b0bf;--svg-footer-text:#7f8897;--svg-code-bg:#222a34;--svg-surface-bg:#1b232d;--svg-code-comment:#8e97a6;--svg-code-green:#86df80;--svg-code-dark-green:#74cad3;--svg-code-red:#ff8d99;--svg-code-blue:#8ca8ff;--svg-code-violet:#c792ea;--svg-code-magenta:#e58bff;--svg-muted-stroke:#a7b0bf;--svg-code-gutter:#6f7783;--svg-focus-ring:#8ca8ff}}]]></style><path d="M0 0v566.93h354.33V0Z" style="fill:var(--svg-paper-bg, #ffffff)!important"/><g transform="matrix(1 0 0 -1 28.35 36.24)"><use class="t" href="#a"/><use x="5.48" class="t" href="#b"/><use x="10.62" class="t" href="#c"/><use x="14.99" class="t" href="#d"/><use x="21.04" class="t" href="#e"/><use x="25.72" class="t" href="#e"/><use x="33.4" class="t" href="#f"/><use x="37.19" class="t" href="#g"/><use x="43.64" class="t" href="#h"/><use x="52.01" class="t" href="#a"/><use x="57.49" class="t" href="#c"/><use x="61.96" class="t" href="#f"/><use x="65.75" class="t" href="#i"/><use x="69" class="t" href="#b"/><use x="74.14" class="t" href="#j"/><use x="77.3" class="t" href="#h"/><use x="85.67" class="t" href="#j"/><use x="88.84" class="t" href="#i"/><use x="92.09" class="t" href="#k"/><use x="98.59" class="t" href="#l"/><use x="104.74" class="t" href="#h"/><use x="110.18" class="t" href="#m"/><use x="119.26" class="t" href="#a"/><use x="124.74" class="t" href="#f"/><use x="131.53" class="t" href="#f"/><use x="135.32" class="t" href="#g"/><use x="141.78" class="t" href="#h"/><use x="150.14" class="t" href="#f"/><use x="153.94" class="t" href="#d"/><use x="159.98" class="t" href="#n"/><use x="169.21" class="t" href="#a"/><use x="174.7" class="t" href="#k"/><use x="181.2" class="t" href="#m"/><use x="190.27" class="t" href="#j"/><use x="193.44" class="t" href="#h"/><use x="198.8" class="t" href="#a"/><use x="204.29" class="t" href="#c"/><use x="208.75" class="t" href="#k"/><use x="215.26" class="t" href="#h"/><use x="220.7" class="t" href="#m"/><use x="229.78" class="t" href="#f"/><use x="233.57" class="t" href="#g"/><use x="240.02" class="t" href="#a"/><use x="245.51" class="t" href="#f"/><use x="252.3" class="t" href="#f"/><use x="256.09" class="t" href="#g"/><use x="262.55" class="t" href="#i"/><use x="265.8" class="t" href="#e"/><use x="273.48" class="t" href="#i"/><use x="276.73" class="t" href="#e"/><use x="284.41" class="t" href="#a"/></g><g transform="matrix(1 0 0 -1 28.35 51.94)"><use class="t" href="#o"/><use x="8.87" class="t" href="#h"/><use x="14.23" class="t" href="#j"/><use x="17.4" class="t" href="#j"/><use x="20.57" class="t" href="#p"/><use x="24.62" class="t" href="#l"/><use x="30.77" class="t" href="#k"/><use x="37.27" class="t" href="#d"/><use x="43.24" class="t" href="#o"/><use x="52.2" class="t" href="#k"/><use x="61.7" class="t" href="#j"/><use x="64.87" class="t" href="#i"/><use x="68.12" class="t" href="#q"/><use x="77.6" class="t" href="#i"/><use x="80.86" class="t" href="#f"/><use x="84.65" class="t" href="#a"/><use x="90.13" class="t" href="#f"/><use x="93.92" class="t" href="#i"/><use x="97.18" class="t" href="#d"/><use x="103.22" class="t" href="#k"/><use x="109.73" class="t" href="#r"/></g><g transform="matrix(1 0 0 -1 28.35 74.23)"><use class="t" href="#s"/><use x="8.34" class="t" href="#f"/><use x="15.13" class="t" href="#f"/><use x="18.92" class="t" href="#g"/><use x="25.38" class="t" href="#a"/><use x="30.86" class="t" href="#f"/><use x="37.66" class="t" href="#n"/><use x="43.97" class="t" href="#d"/><use x="50.02" class="t" href="#i"/><use x="53.27" class="t" href="#k"/><use x="59.77" class="t" href="#f"/><use x="66.56" class="t" href="#t"/><use x="73.13" class="t" href="#u"/><use x="79.85" class="t" href="#v"/><use x="85.85" class="t" href="#w"/><use x="92.22" class="t" href="#c"/><use x="96.59" class="t" href="#h"/><use x="102.04" class="t" href="#m"/><use x="108.11" class="t" href="#x"/><use x="113.94" class="t" href="#t"/><use x="117.5" class="t" href="#y"/><use x="124.22" class="t" href="#f"/><use x="128.02" class="t" href="#g"/><use x="134.47" class="t" href="#h"/><use x="142.84" class="t" href="#z"/><use x="148.75" class="t" href="#c"/><use x="153.12" class="t" href="#d"/><use x="159.08" class="t" href="#o"/><use x="168.05" class="t" href="#e"/><use x="172.73" class="t" href="#h"/><use x="178.09" class="t" href="#c"/><use x="185.56" class="t" href="#d"/><use x="191.6" class="t" href="#k"/><use x="198.11" class="t" href="#j"/><use x="201.28" class="t" href="#A"/><use x="210.46" class="t" href="#j"/><use x="213.62" class="t" href="#d"/><use x="219.67" class="t" href="#a"/><use x="225.16" class="t" href="#m"/><use x="231.23" class="t" href="#e"/><use x="238.91" class="t" href="#f"/><use x="242.7" class="t" href="#g"/><use x="249.16" class="t" href="#h"/><use x="257.52" class="t" href="#e"/><use x="262.2" class="t" href="#n"/><use x="268.43" class="t" href="#c"/><use x="272.89" class="t" href="#i"/><use x="276.14" class="t" href="#f"/><use x="279.94" class="t" href="#h"/></g><g transform="matrix(1 0 0 -1 28.35 89.93)"><use class="t" href="#o"/><use x="8.96" class="t" href="#g"/><use x="15.42" class="t" href="#h"/><use x="20.78" class="t" href="#k"/><use x="30.29" class="t" href="#i"/><use x="33.54" class="t" href="#f"/><use x="40.33" class="t" href="#e"/><use x="45.01" class="t" href="#h"/><use x="50.46" class="t" href="#h"/><use x="55.82" class="t" href="#e"/><use x="63.5" class="t" href="#a"/><use x="71.99" class="t" href="#c"/><use x="76.36" class="t" href="#h"/><use x="81.72" class="t" href="#y"/><use x="85.44" class="t" href="#h"/><use x="90.8" class="t" href="#c"/><use x="95.17" class="t" href="#h"/><use x="100.54" class="t" href="#k"/><use x="107.04" class="t" href="#b"/><use x="112.18" class="t" href="#h"/><use x="120.54" class="t" href="#f"/><use x="124.33" class="t" href="#d"/><use x="133.38" class="t" href="#i"/><use x="136.63" class="t" href="#f"/><use x="140.42" class="t" href="#B"/><use x="146.06" class="t" href="#o"/><use x="155.03" class="t" href="#g"/><use x="161.48" class="t" href="#A"/><use x="170.66" class="t" href="#m"/><use x="176.74" class="t" href="#d"/><use x="182.78" class="t" href="#k"/><use x="189.29" class="t" href="#C"/><use x="192.5" class="t" href="#f"/><use x="199.3" class="t" href="#t"/><use x="205.86" class="t" href="#i"/><use x="209.11" class="t" href="#k"/><use x="215.62" class="t" href="#e"/><use x="220.3" class="t" href="#h"/><use x="225.66" class="t" href="#c"/><use x="230.12" class="t" href="#f"/><use x="236.92" class="t" href="#a"/><use x="245.4" class="t" href="#e"/><use x="250.08" class="t" href="#q"/><use x="259.56" class="t" href="#a"/><use x="265.04" class="t" href="#j"/><use x="268.21" class="t" href="#j"/></g><g transform="matrix(1 0 0 -1 28.35 105.63)"><use class="t" href="#i"/><use x="3.25" class="t" href="#q"/><use x="12.73" class="t" href="#a"/><use x="18.22" class="t" href="#v"/><use x="24.22" class="t" href="#h"/><use x="32.58" class="t" href="#f"/><use x="36.37" class="t" href="#d"/><use x="45.42" class="t" href="#j"/><use x="48.59" class="t" href="#d"/><use x="54.64" class="t" href="#a"/><use x="60.12" class="t" href="#m"/><use x="69.19" class="t" href="#i"/><use x="72.44" class="t" href="#f"/><use x="79.24" class="t" href="#z"/><use x="85.27" class="t" href="#h"/><use x="90.64" class="t" href="#y"/><use x="94.36" class="t" href="#d"/><use x="100.4" class="t" href="#c"/><use x="104.77" class="t" href="#h"/><use x="113.14" class="t" href="#f"/><use x="116.93" class="t" href="#g"/><use x="123.38" class="t" href="#h"/><use x="131.75" class="t" href="#n"/><use x="137.98" class="t" href="#a"/><use x="143.46" class="t" href="#v"/><use x="149.46" class="t" href="#h"/><use x="154.82" class="t" href="#e"/><use x="162.5" class="t" href="#a"/><use x="167.99" class="t" href="#c"/><use x="172.36" class="t" href="#h"/><use x="180.72" class="t" href="#j"/><use x="183.89" class="t" href="#d"/><use x="189.94" class="t" href="#a"/><use x="195.42" class="t" href="#m"/><use x="201.49" class="t" href="#h"/><use x="206.94" class="t" href="#m"/><use x="213.01" class="t" href="#D"/><use x="221.23" class="t" href="#E"/><use x="227.05" class="t" href="#d"/><use x="236.1" class="t" href="#t"/><use x="242.66" class="t" href="#a"/><use x="248.15" class="t" href="#m"/><use x="254.22" class="t" href="#m"/><use x="260.29" class="t" href="#h"/><use x="265.74" class="t" href="#m"/><use x="274.81" class="t" href="#f"/><use x="278.6" class="t" href="#g"/><use x="285.06" class="t" href="#i"/><use x="288.31" class="t" href="#e"/></g><g transform="matrix(1 0 0 -1 28.35 121.32)"><use class="t" href="#j"/><use x="3.17" class="t" href="#i"/><use x="6.42" class="t" href="#k"/><use x="12.92" class="t" href="#h"/><use x="18.29" class="t" href="#x"/></g><g transform="translate(28.35 135.72)"><path d="M0 2.88C0 1.28 1.29 0 2.88 0h291.88a2.9 2.9 0 0 1 2.88 2.88v56.55c0 1.59-1.3 2.88-2.88 2.88H2.88A2.9 2.9 0 0 1 0 59.43Z" style="fill:var(--svg-code-bg, #f5f5f5)!important"/><use class="t" href="#F" transform="matrix(1 0 0 -1 9.6 16.16)"/><g transform="matrix(1 0 0 -1 14.8 16.16)"><use class="theme-code-blue" href="#G"/><use x="5.2" class="theme-code-blue" href="#H"/><use x="10.4" class="theme-code-blue" href="#I"/></g><g transform="matrix(1 0 0 -1 35.6 16.16)"><use class="theme-code-violet" href="#J"/><use x="5.2" class="theme-code-violet" href="#K"/><use x="10.4" class="theme-code-violet" href="#L"/><use x="15.61" class="theme-code-violet" href="#J"/><use x="20.81" class="theme-code-violet" href="#M"/><use x="26.01" class="theme-code-violet" href="#N"/><use x="31.21" class="theme-code-violet" href="#L"/><use x="36.41" class="theme-code-violet" href="#O"/><use x="41.61" class="theme-code-violet" href="#O"/><use x="46.82" class="theme-code-violet" href="#P"/><use x="52.02" class="theme-code-violet" href="#Q"/></g><use class="t" href="#R" transform="matrix(1 0 0 -1 92.83 16.16)"/><use class="theme-code-green" href="#S" transform="matrix(1 0 0 -1 98.03 16.16)"/><g transform="matrix(1 0 0 -1 103.23 16.16)"><use class="theme-code-green" href="#T"/><use x="5.2" class="theme-code-green" href="#K"/><use x="10.4" class="theme-code-green" href="#U"/><use x="15.61" class="theme-code-green" href="#P"/></g><use class="theme-code-green" href="#S" transform="matrix(1 0 0 -1 124.04 16.16)"/><g transform="matrix(1 0 0 -1 134.44 16.16)"><use class="theme-code-violet" href="#V"/><use x="5.2" class="theme-code-violet" href="#L"/><use x="10.4" class="theme-code-violet" href="#O"/><use x="15.61" class="theme-code-violet" href="#T"/><use x="20.81" class="theme-code-violet" href="#N"/></g><use class="t" href="#R" transform="matrix(1 0 0 -1 160.45 16.16)"/><use class="theme-code-green" href="#S" transform="matrix(1 0 0 -1 165.65 16.16)"/><use class="theme-code-green" href="#W" transform="matrix(1 0 0 -1 170.85 16.16)"/><use class="theme-code-green" href="#S" transform="matrix(1 0 0 -1 176.06 16.16)"/><g transform="matrix(1 0 0 -1 186.46 16.16)"><use class="theme-code-violet" href="#N"/><use x="5.2" class="theme-code-violet" href="#P"/><use x="10.4" class="theme-code-violet" href="#L"/><use x="15.61" class="theme-code-violet" href="#I"/><use x="20.81" class="theme-code-violet" href="#N"/><use x="26.01" class="theme-code-violet" href="#T"/></g><use class="t" href="#R" transform="matrix(1 0 0 -1 217.67 16.16)"/><use class="theme-code-green" href="#S" transform="matrix(1 0 0 -1 222.87 16.16)"/><use class="theme-code-green" href="#W" transform="matrix(1 0 0 -1 228.07 16.16)"/><use class="theme-code-green" href="#S" transform="matrix(1 0 0 -1 233.27 16.16)"/><g transform="matrix(1 0 0 -1 9.6 28.34)"><use class="theme-code-violet" href="#G"/><use x="5.2" class="theme-code-violet" href="#T"/><use x="10.4" class="theme-code-violet" href="#X"/><use x="15.61" class="theme-code-violet" href="#Y"/><use x="20.81" class="theme-code-violet" href="#P"/></g><use class="t" href="#R" transform="matrix(1 0 0 -1 35.6 28.34)"/><use class="theme-code-green" href="#S" transform="matrix(1 0 0 -1 40.81 28.34)"/><g transform="matrix(1 0 0 -1 46.01 28.34)"><use class="theme-code-blue" href="#Z"/><use x="5.2" class="theme-code-blue" href="#aa"/><use x="10.4" class="theme-code-blue" href="#G"/><use x="15.61" class="theme-code-blue" href="#L"/><use x="20.81" class="theme-code-blue" href="#T"/><use x="26.01" class="theme-code-blue" href="#L"/><use x="31.21" class="theme-code-blue" href="#aa"/><use x="36.41" class="theme-code-blue" href="#Q"/></g><use class="t" href="#ab" transform="matrix(1 0 0 -1 87.63 28.34)"/><g transform="matrix(1 0 0 -1 92.83 28.34)"><use class="theme-code-blue" href="#J"/><use x="5.2" class="theme-code-blue" href="#ac"/><use x="10.4" class="theme-code-blue" href="#G"/><use x="15.61" class="theme-code-blue" href="#aa"/><use x="20.81" class="theme-code-blue" href="#Y"/><use x="26.01" class="theme-code-blue" href="#U"/><use x="31.21" class="theme-code-blue" href="#T"/><use x="36.41" class="theme-code-blue" href="#P"/></g><use class="t" href="#ad" transform="matrix(1 0 0 -1 134.44 28.34)"/><g transform="matrix(1 0 0 -1 139.64 28.34)"><use class="theme-code-blue" href="#aa"/><use x="5.2" class="theme-code-blue" href="#Z"/><use x="10.4" class="theme-code-blue" href="#J"/><use x="15.61" class="theme-code-blue" href="#ae"/><use x="20.81" class="theme-code-blue" href="#L"/><use x="26.01" class="theme-code-blue" href="#T"/><use x="31.21" class="theme-code-blue" href="#X"/></g><use class="t" href="#ab" transform="matrix(1 0 0 -1 176.06 28.34)"/><use href="#W" style="fill:var(--svg-code-magenta, #b60157)!important" transform="matrix(1 0 0 -1 181.26 28.34)"/><use class="t" href="#ad" transform="matrix(1 0 0 -1 186.46 28.34)"/><g transform="matrix(1 0 0 -1 191.66 28.34)"><use class="theme-code-blue" href="#Z"/><use x="5.2" class="theme-code-blue" href="#aa"/><use x="10.4" class="theme-code-blue" href="#L"/><use x="15.61" class="theme-code-blue" href="#Q"/><use x="20.81" class="theme-code-blue" href="#T"/><use x="26.01" class="theme-code-blue" href="#P"/><use x="31.21" class="theme-code-blue" href="#K"/><use x="36.41" class="theme-code-blue" href="#M"/></g><g transform="matrix(1 0 0 -1 9.6 40.53)"><use class="theme-code-blue" href="#P"/><use x="5.2" class="theme-code-blue" href="#H"/><use x="10.4" class="theme-code-blue" href="#P"/><use x="15.61" class="theme-code-blue" href="#Q"/><use x="20.81" class="theme-code-blue" href="#T"/><use x="26.01" class="theme-code-blue" href="#G"/></g><use class="t" href="#ab" transform="matrix(1 0 0 -1 40.81 40.53)"/><g transform="matrix(1 0 0 -1 46.01 40.53)"><use class="theme-code-blue" href="#Q"/><use x="5.2" class="theme-code-blue" href="#aa"/><use x="10.4" class="theme-code-blue" href="#Q"/><use x="15.61" class="theme-code-blue" href="#P"/></g><use class="theme-code-green" href="#S" transform="matrix(1 0 0 -1 66.82 40.53)"/><use class="t" href="#af" transform="matrix(1 0 0 -1 72.02 40.53)"/><use class="t" href="#F" transform="matrix(1 0 0 -1 77.22 40.53)"/><g transform="matrix(1 0 0 -1 82.42 40.53)"><use class="theme-code-blue" href="#U"/><use x="5.2" class="theme-code-blue" href="#G"/><use x="10.4" class="theme-code-blue" href="#P"/></g><g transform="matrix(1 0 0 -1 103.23 40.53)"><use class="theme-code-violet" href="#N"/><use x="5.2" class="theme-code-violet" href="#K"/><use x="10.4" class="theme-code-violet" href="#P"/><use x="15.61" class="theme-code-violet" href="#ag"/></g><use class="t" href="#R" transform="matrix(1 0 0 -1 124.04 40.53)"/><use class="theme-code-green" href="#S" transform="matrix(1 0 0 -1 129.24 40.53)"/><g transform="matrix(1 0 0 -1 134.44 40.53)"><use class="theme-code-green" href="#ah"/><use x="5.2" class="theme-code-green" href="#ai"/><use x="10.4" class="theme-code-green" href="#J"/><use x="15.61" class="theme-code-green" href="#G"/><use x="20.81" class="theme-code-green" href="#G"/><use x="26.01" class="theme-code-green" href="#P"/><use x="31.21" class="theme-code-green" href="#T"/><use x="36.41" class="theme-code-green" href="#G"/><use x="41.61" class="theme-code-green" href="#ai"/><use x="46.82" class="theme-code-green" href="#I"/><use x="52.02" class="theme-code-green" href="#Y"/><use x="57.22" class="theme-code-green" href="#X"/><use x="62.42" class="theme-code-green" href="#Z"/><use x="67.62" class="theme-code-green" href="#N"/><use x="72.82" class="theme-code-green" href="#G"/><use x="78.03" class="theme-code-green" href="#ah"/><use x="83.23" class="theme-code-green" href="#G"/><use x="88.43" class="theme-code-green" href="#H"/><use x="93.63" class="theme-code-green" href="#I"/><use x="98.83" class="theme-code-green" href="#aj"/><use x="104.03" class="theme-code-green" href="#I"/><use x="109.24" class="theme-code-green" href="#ak"/></g><use class="theme-code-green" href="#S" transform="matrix(1 0 0 -1 248.88 40.53)"/><use class="t" href="#af" transform="matrix(1 0 0 -1 254.08 40.53)"/><g transform="matrix(1 0 0 -1 259.28 40.53)"><use class="t" href="#F"/><use x="5.2" class="t" href="#ai"/></g><g transform="matrix(1 0 0 -1 9.6 52.7)"><use class="theme-code-blue" href="#U"/><use x="5.2" class="theme-code-blue" href="#G"/><use x="10.4" class="theme-code-blue" href="#P"/></g><use class="t" href="#af" transform="matrix(1 0 0 -1 25.2 52.7)"/><g transform="matrix(1 0 0 -1 30.4 52.7)"><use class="t" href="#F"/><use x="5.2" class="t" href="#ai"/></g><g transform="matrix(1 0 0 -1 40.81 52.7)"><use class="theme-code-blue" href="#G"/><use x="5.2" class="theme-code-blue" href="#H"/><use x="10.4" class="theme-code-blue" href="#I"/></g><use class="t" href="#af" transform="matrix(1 0 0 -1 56.42 52.7)"/><a href="#action=copy:7554c20d33" aria-label="Copy" role="button"><title>Copy</title>
                    <path fill="transparent" d="M0 0h297.64v62.31H0z"/>
                </a></g><g transform="matrix(1 0 0 -1 28.35 220.32)"><use class="t" href="#t"/><use x="6.56" class="t" href="#e"/><use x="11.24" class="t" href="#g"/><use x="17.7" class="t" href="#d"/><use x="23.75" class="t" href="#w"/><use x="30.12" class="t" href="#j"/><use x="33.29" class="t" href="#m"/><use x="42.36" class="t" href="#e"/><use x="47.04" class="t" href="#a"/><use x="52.52" class="t" href="#A"/><use x="61.7" class="t" href="#i"/><use x="64.96" class="t" href="#f"/><use x="71.75" class="t" href="#m"/><use x="77.82" class="t" href="#d"/><use x="83.95" class="t" href="#h"/><use x="89.32" class="t" href="#e"/><use x="97" class="t" href="#o"/><use x="105.86" class="t" href="#d"/><use x="111.91" class="t" href="#c"/><use x="116.38" class="t" href="#l"/><use x="122.52" class="t" href="#r"/><use x="128.16" class="t" href="#s"/><use x="136.5" class="t" href="#j"/><use x="139.67" class="t" href="#f"/><use x="143.46" class="t" href="#g"/><use x="149.92" class="t" href="#d"/><use x="155.96" class="t" href="#w"/><use x="162.34" class="t" href="#v"/><use x="168.34" class="t" href="#g"/><use x="177.79" class="t" href="#f"/><use x="181.58" class="t" href="#g"/><use x="188.04" class="t" href="#h"/><use x="196.4" class="t" href="#v"/><use x="202.4" class="t" href="#j"/><use x="205.57" class="t" href="#A"/><use x="211.75" class="t" href="#n"/><use x="217.98" class="t" href="#g"/><use x="224.44" class="t" href="#e"/><use x="232.12" class="t" href="#u"/><use x="238.84" class="t" href="#j"/><use x="242" class="t" href="#h"/><use x="250.37" class="t" href="#i"/><use x="253.62" class="t" href="#e"/><use x="261.3" class="t" href="#e"/><use x="265.98" class="t" href="#f"/><use x="269.77" class="t" href="#i"/><use x="273.02" class="t" href="#j"/><use x="276.19" class="t" href="#j"/></g><g transform="matrix(1 0 0 -1 28.35 236.02)"><use class="t" href="#k"/><use x="6.5" class="t" href="#d"/><use x="12.55" class="t" href="#f"/><use x="19.34" class="t" href="#y"/><use x="23.06" class="t" href="#w"/><use x="29.44" class="t" href="#j"/><use x="32.6" class="t" href="#j"/><use x="35.77" class="t" href="#A"/><use x="44.95" class="t" href="#j"/><use x="48.12" class="t" href="#d"/><use x="54.17" class="t" href="#a"/><use x="59.65" class="t" href="#m"/><use x="65.72" class="t" href="#h"/><use x="71.17" class="t" href="#m"/><use x="80.24" class="t" href="#al"/><use x="83.82" class="t" href="#i"/><use x="87.07" class="t" href="#f"/><use x="93.86" class="t" href="#i"/><use x="97.12" class="t" href="#e"/><use x="104.8" class="t" href="#d"/><use x="110.76" class="t" href="#am"/><use x="116.63" class="t" href="#h"/><use x="121.99" class="t" href="#c"/><use x="129.46" class="t" href="#an"/><use x="135.04" class="t" href="#ao"/><use x="143.62" class="t" href="#ap"/><use x="151.26" class="t" href="#i"/><use x="154.51" class="t" href="#aq"/><use x="161.57" class="t" href="#ar"/><use x="165.02" class="t" href="#as"/><use x="171.6" class="t" href="#w"/><use x="177.97" class="t" href="#k"/><use x="184.48" class="t" href="#f"/><use x="188.27" class="t" href="#i"/><use x="191.52" class="t" href="#j"/><use x="197.69" class="t" href="#f"/><use x="201.48" class="t" href="#g"/><use x="207.94" class="t" href="#h"/><use x="216.3" class="t" href="#n"/><use x="222.53" class="t" href="#a"/><use x="228.01" class="t" href="#v"/><use x="234.01" class="t" href="#h"/><use x="239.38" class="t" href="#e"/><use x="247.06" class="t" href="#g"/><use x="253.51" class="t" href="#a"/><use x="259" class="t" href="#e"/><use x="266.68" class="t" href="#z"/><use x="272.71" class="t" href="#h"/><use x="278.16" class="t" href="#h"/><use x="283.52" class="t" href="#k"/></g><g transform="matrix(1 0 0 -1 28.35 251.72)"><use class="t" href="#j"/><use x="3.17" class="t" href="#d"/><use x="9.22" class="t" href="#a"/><use x="14.7" class="t" href="#m"/><use x="20.77" class="t" href="#h"/><use x="26.22" class="t" href="#m"/><use x="35.29" class="t" href="#d"/><use x="41.34" class="t" href="#k"/><use x="50.84" class="t" href="#f"/><use x="54.64" class="t" href="#g"/><use x="61.09" class="t" href="#h"/><use x="69.46" class="t" href="#u"/><use x="76.18" class="t" href="#c"/><use x="80.64" class="t" href="#e"/><use x="85.32" class="t" href="#f"/><use x="92.11" class="t" href="#am"/><use x="98.08" class="t" href="#i"/><use x="101.33" class="t" href="#e"/><use x="106.01" class="t" href="#i"/><use x="109.26" class="t" href="#f"/><use x="113.05" class="t" href="#B"/><use x="118.69" class="t" href="#i"/><use x="121.94" class="t" href="#f"/><use x="128.74" class="t" href="#e"/><use x="133.42" class="t" href="#f"/><use x="137.21" class="t" href="#i"/><use x="140.46" class="t" href="#j"/><use x="143.63" class="t" href="#j"/><use x="149.8" class="t" href="#b"/><use x="154.93" class="t" href="#w"/><use x="161.3" class="t" href="#f"/><use x="165.1" class="t" href="#e"/><use x="172.78" class="t" href="#f"/><use x="176.57" class="t" href="#g"/><use x="183.02" class="t" href="#h"/><use x="191.39" class="t" href="#z"/><use x="197.3" class="t" href="#j"/><use x="200.47" class="t" href="#a"/><use x="205.96" class="t" href="#b"/><use x="211.09" class="t" href="#l"/><use x="220.24" class="t" href="#e"/><use x="224.92" class="t" href="#b"/><use x="230.05" class="t" href="#c"/><use x="234.42" class="t" href="#h"/><use x="239.87" class="t" href="#h"/><use x="245.23" class="t" href="#k"/><use x="254.74" class="t" href="#f"/><use x="258.53" class="t" href="#i"/><use x="261.78" class="t" href="#q"/><use x="271.26" class="t" href="#h"/><use x="279.62" class="t" href="#z"/><use x="285.54" class="t" href="#A"/></g><g transform="matrix(1 0 0 -1 28.35 267.41)"><use class="t" href="#f"/><use x="3.79" class="t" href="#g"/><use x="10.25" class="t" href="#c"/><use x="14.62" class="t" href="#h"/><use x="20.06" class="t" href="#h"/><use x="28.43" class="t" href="#at"/><use x="34.46" class="t" href="#w"/><use x="40.84" class="t" href="#a"/><use x="46.32" class="t" href="#c"/><use x="50.78" class="t" href="#f"/><use x="54.58" class="t" href="#h"/><use x="59.94" class="t" href="#c"/><use x="64.4" class="t" href="#e"/><use x="69.08" class="t" href="#r"/><use x="74.72" class="t" href="#au"/><use x="83.15" class="t" href="#k"/><use x="92.65" class="t" href="#e"/><use x="97.33" class="t" href="#w"/><use x="103.7" class="t" href="#z"/><use x="109.62" class="t" href="#e"/><use x="114.3" class="t" href="#h"/><use x="119.75" class="t" href="#at"/><use x="125.78" class="t" href="#w"/><use x="132.16" class="t" href="#h"/><use x="137.52" class="t" href="#k"/><use x="144.02" class="t" href="#f"/><use x="150.82" class="t" href="#am"/><use x="156.78" class="t" href="#i"/><use x="160.03" class="t" href="#e"/><use x="164.71" class="t" href="#i"/><use x="167.96" class="t" href="#f"/><use x="171.76" class="t" href="#e"/><use x="179.44" class="t" href="#f"/><use x="183.23" class="t" href="#d"/><use x="192.28" class="t" href="#a"/><use x="197.76" class="t" href="#k"/><use x="204.26" class="t" href="#A"/><use x="213.44" class="t" href="#n"/><use x="219.67" class="t" href="#a"/><use x="225.16" class="t" href="#v"/><use x="231.16" class="t" href="#h"/><use x="236.4" class="t" href="#B"/><use x="242.04" class="t" href="#i"/><use x="245.29" class="t" href="#f"/><use x="252.08" class="t" href="#z"/><use x="258.12" class="t" href="#h"/><use x="263.57" class="t" href="#b"/><use x="268.7" class="t" href="#d"/><use x="274.75" class="t" href="#q"/><use x="284.23" class="t" href="#h"/></g><g transform="matrix(1 0 0 -1 28.35 283.1)"><use class="t" href="#i"/><use x="3.25" class="t" href="#k"/><use x="9.76" class="t" href="#e"/><use x="14.44" class="t" href="#f"/><use x="18.23" class="t" href="#a"/><use x="23.71" class="t" href="#k"/><use x="30.22" class="t" href="#f"/><use x="34.01" class="t" href="#r"/></g><image width="297.64" height="142.3" aria-label="A screenshot of developer tools showing that the glyphs file is loaded before the pages ar loaded" href="image.d9e96c.46752f.webp" transform="translate(28.35 297.5)"/><g transform="matrix(1 0 0 -1 37.39 455.5)"><use class="t" href="#av"/><use x="5.82" class="t" href="#i"/><use x="9.07" class="t" href="#v"/><use x="15.07" class="t" href="#w"/><use x="21.44" class="t" href="#c"/><use x="25.81" class="t" href="#h"/><use x="34.18" class="t" href="#aw"/><use x="39.76" class="t" href="#x"/><use x="45.59" class="t" href="#v"/><use x="51.59" class="t" href="#j"/><use x="54.76" class="t" href="#A"/><use x="60.94" class="t" href="#n"/><use x="67.16" class="t" href="#g"/><use x="73.62" class="t" href="#e"/><use x="81.3" class="t" href="#u"/><use x="88.02" class="t" href="#j"/><use x="91.19" class="t" href="#h"/><use x="99.55" class="t" href="#i"/><use x="102.8" class="t" href="#e"/><use x="110.48" class="t" href="#j"/><use x="113.65" class="t" href="#d"/><use x="119.7" class="t" href="#a"/><use x="125.18" class="t" href="#m"/><use x="131.26" class="t" href="#h"/><use x="136.7" class="t" href="#m"/><use x="145.78" class="t" href="#z"/><use x="151.81" class="t" href="#h"/><use x="157.18" class="t" href="#y"/><use x="160.9" class="t" href="#d"/><use x="166.94" class="t" href="#c"/><use x="171.31" class="t" href="#h"/><use x="179.68" class="t" href="#f"/><use x="183.47" class="t" href="#g"/><use x="189.92" class="t" href="#h"/><use x="198.29" class="t" href="#n"/><use x="204.52" class="t" href="#a"/><use x="210" class="t" href="#v"/><use x="216" class="t" href="#h"/><use x="221.36" class="t" href="#e"/><use x="229.04" class="t" href="#a"/><use x="234.53" class="t" href="#c"/><use x="238.9" class="t" href="#h"/><use x="247.26" class="t" href="#j"/><use x="250.43" class="t" href="#d"/><use x="256.48" class="t" href="#a"/><use x="261.96" class="t" href="#m"/><use x="268.03" class="t" href="#h"/><use x="273.48" class="t" href="#m"/></g><g transform="matrix(1 0 0 -1 28.35 477.8)"><use class="t" href="#ax"/><use x="6.05" class="t" href="#d"/><use x="12.1" class="t" href="#w"/><use x="21.47" class="t" href="#b"/><use x="26.6" class="t" href="#a"/><use x="32.09" class="t" href="#k"/><use x="41.59" class="t" href="#am"/><use x="47.56" class="t" href="#i"/><use x="50.81" class="t" href="#e"/><use x="55.49" class="t" href="#i"/><use x="58.74" class="t" href="#f"/><use x="65.53" class="t" href="#q"/><use x="75.01" class="t" href="#A"/><use x="84.19" class="t" href="#z"/><use x="90.11" class="t" href="#j"/><use x="93.28" class="t" href="#d"/><use x="99.32" class="t" href="#v"/><use x="108.32" class="t" href="#f"/><use x="112.12" class="t" href="#d"/><use x="121.16" class="t" href="#e"/><use x="125.84" class="t" href="#h"/><use x="131.29" class="t" href="#h"/><use x="139.66" class="t" href="#f"/><use x="143.45" class="t" href="#g"/><use x="149.9" class="t" href="#h"/><use x="158.27" class="t" href="#h"/><use x="163.63" class="t" href="#ay"/><use x="170.62" class="t" href="#h"/><use x="176.06" class="t" href="#b"/><use x="181.2" class="t" href="#f"/><use x="187.99" class="t" href="#i"/><use x="191.24" class="t" href="#k"/><use x="200.75" class="t" href="#a"/><use x="206.23" class="t" href="#b"/><use x="211.37" class="t" href="#f"/><use x="215.16" class="t" href="#i"/><use x="218.41" class="t" href="#d"/><use x="224.46" class="t" href="#k"/><use x="230.96" class="t" href="#x"/></g><path fill="none" stroke-width=".48" d="M28.35 474.71h236.8" class="theme-muted-stroke"/><g transform="matrix(1 0 0 -1 265.14 477.8)"><use class="t" href="#aq"/><use x="7.06" class="t" href="#j"/><use x="10.22" class="t" href="#d"/><use x="16.27" class="t" href="#v"/></g><path fill="none" stroke-width=".48" d="M265.14 474.71h22.27" class="theme-muted-stroke"/><path fill="none" stroke-width=".5" d="M265.14 479.8h15.8" class="theme-muted-stroke"/><a href="https://blog.owo.li" aria-label="Contents" target="_top" transform="translate(265.14 466)"><title>Contents</title>
                    <path fill="transparent" d="M0 0h22.27v15.7H0z"/>
                </a><g transform="matrix(1 0 0 -1 28.35 500.1)"><use class="t" href="#s"/><use x="8.34" class="t" href="#k"/><use x="14.84" class="t" href="#m"/><use x="23.92" class="t" href="#f"/><use x="27.71" class="t" href="#g"/><use x="34.16" class="t" href="#a"/><use x="39.65" class="t" href="#f"/><use x="46.44" class="t" href="#i"/><use x="49.69" class="t" href="#e"/><use x="57.37" class="t" href="#f"/><use x="61.16" class="t" href="#g"/><use x="67.62" class="t" href="#h"/><use x="75.98" class="t" href="#h"/><use x="81.35" class="t" href="#k"/><use x="87.85" class="t" href="#m"/><use x="96.92" class="t" href="#d"/><use x="102.97" class="t" href="#y"/><use x="109.69" class="t" href="#f"/><use x="113.48" class="t" href="#g"/><use x="119.94" class="t" href="#h"/><use x="128.3" class="t" href="#e"/><use x="132.98" class="t" href="#f"/><use x="136.78" class="t" href="#d"/><use x="142.82" class="t" href="#c"/><use x="147.47" class="t" href="#A"/><use x="152.94" class="t" href="#r"/></g><g transform="matrix(1 0 0 -1 240.46 533.07)"><use class="theme-muted-text" href="#az"/><use x="5.57" class="theme-muted-text" href="#aA"/><use x="10.63" class="theme-muted-text" href="#aB"/><use x="13.34" class="theme-muted-text" href="#aC"/><use x="16.5" class="theme-muted-text" href="#aD"/><use x="21.04" class="theme-muted-text" href="#aA"/><use x="28.6" class="theme-muted-text" href="#aE"/><use x="33.64" class="theme-muted-text" href="#aF"/><use x="41.56" class="theme-muted-text" href="#aG"/><use x="46.21" class="theme-muted-text" href="#aH"/><use x="50.86" class="theme-muted-text" href="#aG"/><use x="55.51" class="theme-muted-text" href="#aI"/><use x="60.16" class="theme-muted-text" href="#aJ"/><use x="63.54" class="theme-muted-text" href="#aH"/><use x="68.19" class="theme-muted-text" href="#aK"/><use x="72.84" class="theme-muted-text" href="#aJ"/><use x="76.22" class="theme-muted-text" href="#aL"/><use x="80.87" class="theme-muted-text" href="#aI"/></g><g transform="matrix(1 0 0 -1 28.35 553.67)"><use class="theme-footer-text" href="#aM"/><use x="6.46" class="theme-footer-text" href="#aN"/><use x="12.09" class="theme-footer-text" href="#aO"/><use x="18.76" class="theme-footer-text" href="#aP"/><use x="23.37" class="theme-footer-text" href="#aQ"/><use x="26.48" class="theme-footer-text" href="#aR"/><use x="30.79" class="theme-footer-text" href="#aS"/><use x="35.56" class="theme-footer-text" href="#aT"/><use x="43.71" class="theme-footer-text" href="#aN"/><use x="49.34" class="theme-footer-text" href="#aU"/><use x="57.86" class="theme-footer-text" href="#aG"/><use x="62.51" class="theme-footer-text" href="#aH"/><use x="67.16" class="theme-footer-text" href="#aG"/><use x="71.81" class="theme-footer-text" href="#aI"/><use x="76.46" class="theme-footer-text" href="#aV"/><use x="79.84" class="theme-footer-text" href="#aH"/><use x="84.49" class="theme-footer-text" href="#aK"/><use x="89.14" class="theme-footer-text" href="#aV"/><use x="92.52" class="theme-footer-text" href="#aL"/><use x="97.17" class="theme-footer-text" href="#aW"/></g><use class="theme-footer-text" href="#aX" transform="matrix(1 0 0 -1 321.33 553.67)"/><defs><symbol id="a" overflow="visible"><use href="/assets/glyphs.69d1d6.svg#g2k"/></symbol><symbol id="b" overflow="visible"><use href="/assets/glyphs.69d1d6.svg#g2g"/></symbol><symbol id="c" overflow="visible"><use href="/assets/glyphs.69d1d6.svg#g2f"/></symbol><symbol id="d" overflow="visible"><use href="/assets/glyphs.69d1d6.svg#g2d"/></symbol><symbol id="e" overflow="visible"><use href="/assets/glyphs.69d1d6.svg#g2c"/></symbol><symbol id="f" overflow="visible"><use href="/assets/glyphs.69d1d6.svg#g2o"/></symbol><symbol id="g" overflow="visible"><use href="/assets/glyphs.69d1d6.svg#g3r"/></symbol><symbol id="h" overflow="visible"><use href="/assets/glyphs.69d1d6.svg#g2h"/></symbol><symbol id="i" overflow="visible"><use href="/assets/glyphs.69d1d6.svg#g2l"/></symbol><symbol id="j" overflow="visible"><use href="/assets/glyphs.69d1d6.svg#g3t"/></symbol><symbol id="k" overflow="visible"><use href="/assets/glyphs.69d1d6.svg#g2m"/></symbol><symbol id="l" overflow="visible"><use href="/assets/glyphs.69d1d6.svg#g40"/></symbol><symbol id="m" overflow="visible"><use href="/assets/glyphs.69d1d6.svg#g41"/></symbol><symbol id="n" overflow="visible"><use href="/assets/glyphs.69d1d6.svg#g2q"/></symbol><symbol id="o" overflow="visible"><use href="/assets/glyphs.69d1d6.svg#g51"/></symbol><symbol id="p" overflow="visible"><use href="/assets/glyphs.69d1d6.svg#g7k"/></symbol><symbol id="q" overflow="visible"><use href="/assets/glyphs.69d1d6.svg#g2j"/></symbol><symbol id="r" overflow="visible"><use href="/assets/glyphs.69d1d6.svg#g2n"/></symbol><symbol id="s" overflow="visible"><use href="/assets/glyphs.69d1d6.svg#g5e"/></symbol><symbol id="t" overflow="visible"><use href="/assets/glyphs.69d1d6.svg#g84"/></symbol><symbol id="u" overflow="visible"><use href="/assets/glyphs.69d1d6.svg#g3u"/></symbol><symbol id="v" overflow="visible"><use href="/assets/glyphs.69d1d6.svg#g3w"/></symbol><symbol id="w" overflow="visible"><use href="/assets/glyphs.69d1d6.svg#g2e"/></symbol><symbol id="x" overflow="visible"><use href="/assets/glyphs.69d1d6.svg#g4y"/></symbol><symbol id="y" overflow="visible"><use href="/assets/glyphs.69d1d6.svg#g3v"/></symbol><symbol id="z" overflow="visible"><use href="/assets/glyphs.69d1d6.svg#g3s"/></symbol><symbol id="A" overflow="visible"><use href="/assets/glyphs.69d1d6.svg#g2p"/></symbol><symbol id="B" overflow="visible"><use href="/assets/glyphs.69d1d6.svg#g3z"/></symbol><symbol id="C" overflow="visible"><use href="/assets/glyphs.69d1d6.svg#g3y"/></symbol><symbol id="D" overflow="visible"><use href="/assets/glyphs.69d1d6.svg#ga5"/></symbol><symbol id="E" overflow="visible"><use href="/assets/glyphs.69d1d6.svg#g5i"/></symbol><symbol id="F" overflow="visible"><use href="/assets/glyphs.69d1d6.svg#gbv"/></symbol><symbol id="G" overflow="visible"><use href="/assets/glyphs.69d1d6.svg#g69"/></symbol><symbol id="H" overflow="visible"><use href="/assets/glyphs.69d1d6.svg#g7n"/></symbol><symbol id="I" overflow="visible"><use href="/assets/glyphs.69d1d6.svg#g73"/></symbol><symbol id="J" overflow="visible"><use href="/assets/glyphs.69d1d6.svg#g5w"/></symbol><symbol id="K" overflow="visible"><use href="/assets/glyphs.69d1d6.svg#g6f"/></symbol><symbol id="L" overflow="visible"><use href="/assets/glyphs.69d1d6.svg#g6a"/></symbol><symbol id="M" overflow="visible"><use href="/assets/glyphs.69d1d6.svg#g90"/></symbol><symbol id="N" overflow="visible"><use href="/assets/glyphs.69d1d6.svg#g60"/></symbol><symbol id="O" overflow="visible"><use href="/assets/glyphs.69d1d6.svg#g6h"/></symbol><symbol id="P" overflow="visible"><use href="/assets/glyphs.69d1d6.svg#g68"/></symbol><symbol id="Q" overflow="visible"><use href="/assets/glyphs.69d1d6.svg#g6c"/></symbol><symbol id="R" overflow="visible"><use href="/assets/glyphs.69d1d6.svg#g7a"/></symbol><symbol id="S" overflow="visible"><use href="/assets/glyphs.69d1d6.svg#g5u"/></symbol><symbol id="T" overflow="visible"><use href="/assets/glyphs.69d1d6.svg#g5y"/></symbol><symbol id="U" overflow="visible"><use href="/assets/glyphs.69d1d6.svg#g7g"/></symbol><symbol id="V" overflow="visible"><use href="/assets/glyphs.69d1d6.svg#g7h"/></symbol><symbol id="W" overflow="visible"><use href="/assets/glyphs.69d1d6.svg#g7d"/></symbol><symbol id="X" overflow="visible"><use href="/assets/glyphs.69d1d6.svg#g6g"/></symbol><symbol id="Y" overflow="visible"><use href="/assets/glyphs.69d1d6.svg#g77"/></symbol><symbol id="Z" overflow="visible"><use href="/assets/glyphs.69d1d6.svg#g5x"/></symbol><symbol id="aa" overflow="visible"><use href="/assets/glyphs.69d1d6.svg#g6b"/></symbol><symbol id="ab" overflow="visible"><use href="/assets/glyphs.69d1d6.svg#g61"/></symbol><symbol id="ac" overflow="visible"><use href="/assets/glyphs.69d1d6.svg#g6n"/></symbol><symbol id="ad" overflow="visible"><use href="/assets/glyphs.69d1d6.svg#ga9"/></symbol><symbol id="ae" overflow="visible"><use href="/assets/glyphs.69d1d6.svg#g5z"/></symbol><symbol id="af" overflow="visible"><use href="/assets/glyphs.69d1d6.svg#gbw"/></symbol><symbol id="ag" overflow="visible"><use href="/assets/glyphs.69d1d6.svg#g70"/></symbol><symbol id="ah" overflow="visible"><use href="/assets/glyphs.69d1d6.svg#g6k"/></symbol><symbol id="ai" overflow="visible"><use href="/assets/glyphs.69d1d6.svg#ga6"/></symbol><symbol id="aj" overflow="visible"><use href="/assets/glyphs.69d1d6.svg#gbu"/></symbol><symbol id="ak" overflow="visible"><use href="/assets/glyphs.69d1d6.svg#g75"/></symbol><symbol id="al" overflow="visible"><use href="/assets/glyphs.69d1d6.svg#gam"/></symbol><symbol id="am" overflow="visible"><use href="/assets/glyphs.69d1d6.svg#g56"/></symbol><symbol id="an" overflow="visible"><use href="/assets/glyphs.69d1d6.svg#gax"/></symbol><symbol id="ao" overflow="visible"><use href="/assets/glyphs.69d1d6.svg#g1nf"/></symbol><symbol id="ap" overflow="visible"><use href="/assets/glyphs.69d1d6.svg#g1nc"/></symbol><symbol id="aq" overflow="visible"><use href="/assets/glyphs.69d1d6.svg#g3x"/></symbol><symbol id="ar" overflow="visible"><use href="/assets/glyphs.69d1d6.svg#gcx"/></symbol><symbol id="as" overflow="visible"><use href="/assets/glyphs.69d1d6.svg#gan"/></symbol><symbol id="at" overflow="visible"><use href="/assets/glyphs.69d1d6.svg#g7x"/></symbol><symbol id="au" overflow="visible"><use href="/assets/glyphs.69d1d6.svg#g8l"/></symbol><symbol id="av" overflow="visible"><use href="/assets/glyphs.69d1d6.svg#gbn"/></symbol><symbol id="aw" overflow="visible"><use href="/assets/glyphs.69d1d6.svg#g7q"/></symbol><symbol id="ax" overflow="visible"><use href="/assets/glyphs.69d1d6.svg#g52"/></symbol><symbol id="ay" overflow="visible"><use href="/assets/glyphs.69d1d6.svg#g85"/></symbol><symbol id="az" overflow="visible"><use href="/assets/glyphs.69d1d6.svg#g42"/></symbol><symbol id="aA" overflow="visible"><use href="/assets/glyphs.69d1d6.svg#g43"/></symbol><symbol id="aB" overflow="visible"><use href="/assets/glyphs.69d1d6.svg#g44"/></symbol><symbol id="aC" overflow="visible"><use href="/assets/glyphs.69d1d6.svg#g38"/></symbol><symbol id="aD" overflow="visible"><use href="/assets/glyphs.69d1d6.svg#g8"/></symbol><symbol id="aE" overflow="visible"><use href="/assets/glyphs.69d1d6.svg#g36"/></symbol><symbol id="aF" overflow="visible"><use href="/assets/glyphs.69d1d6.svg#g37"/></symbol><symbol id="aG" overflow="visible"><use href="/assets/glyphs.69d1d6.svg#g30"/></symbol><symbol id="aH" overflow="visible"><use href="/assets/glyphs.69d1d6.svg#g31"/></symbol><symbol id="aI" overflow="visible"><use href="/assets/glyphs.69d1d6.svg#g32"/></symbol><symbol id="aJ" overflow="visible"><use href="/assets/glyphs.69d1d6.svg#g45"/></symbol><symbol id="aK" overflow="visible"><use href="/assets/glyphs.69d1d6.svg#g34"/></symbol><symbol id="aL" overflow="visible"><use href="/assets/glyphs.69d1d6.svg#g35"/></symbol><symbol id="aM" overflow="visible"><use href="/assets/glyphs.69d1d6.svg#g2r"/></symbol><symbol id="aN" overflow="visible"><use href="/assets/glyphs.69d1d6.svg#g2s"/></symbol><symbol id="aO" overflow="visible"><use href="/assets/glyphs.69d1d6.svg#g2t"/></symbol><symbol id="aP" overflow="visible"><use href="/assets/glyphs.69d1d6.svg#g2u"/></symbol><symbol id="aQ" overflow="visible"><use href="/assets/glyphs.69d1d6.svg#g2v"/></symbol><symbol id="aR" overflow="visible"><use href="/assets/glyphs.69d1d6.svg#g2w"/></symbol><symbol id="aS" overflow="visible"><use href="/assets/glyphs.69d1d6.svg#g2x"/></symbol><symbol id="aT" overflow="visible"><use href="/assets/glyphs.69d1d6.svg#g2y"/></symbol><symbol id="aU" overflow="visible"><use href="/assets/glyphs.69d1d6.svg#g2z"/></symbol><symbol id="aV" overflow="visible"><use href="/assets/glyphs.69d1d6.svg#g33"/></symbol><symbol id="aW" overflow="visible"><use href="/assets/glyphs.69d1d6.svg#g1nl"/></symbol><symbol id="aX" overflow="visible"><use href="/assets/glyphs.69d1d6.svg#g95"/></symbol></defs></svg>