<svg xmlns="http://www.w3.org/2000/svg" xmlns:xlink="http://www.w3.org/1999/xlink" viewBox="0 0 498.9 708.66"><style><![CDATA[.t{fill:var(--svg-text, #141414)!important}.theme-footer-text{fill:var(--svg-footer-text, #aaaaaa)!important}.theme-code-bg{fill:var(--svg-code-bg, #f5f5f5)!important}.theme-code-green{fill:var(--svg-code-green, #198810)!important}.theme-code-blue{fill:var(--svg-code-blue, #4b69c6)!important}.theme-code-violet{fill:var(--svg-code-violet, #8b41b1)!important}a:focus,a:focus-visible{outline:0}a:focus-visible>path{fill:transparent!important;stroke:var(--svg-focus-ring, #4b69c6)!important;stroke-width:1.2!important;stroke-linejoin:round;vector-effect:non-scaling-stroke}@media (forced-colors:active){a:focus-visible>path{stroke:CanvasText!important}}@media (prefers-color-scheme:dark){:root{--svg-paper-bg:#161b22;--svg-text:#e8ecf2;--svg-muted-text:#a7b0bf;--svg-footer-text:#7f8897;--svg-code-bg:#222a34;--svg-surface-bg:#1b232d;--svg-code-comment:#8e97a6;--svg-code-green:#86df80;--svg-code-dark-green:#74cad3;--svg-code-red:#ff8d99;--svg-code-blue:#8ca8ff;--svg-code-violet:#c792ea;--svg-code-magenta:#e58bff;--svg-muted-stroke:#a7b0bf;--svg-code-gutter:#6f7783;--svg-focus-ring:#8ca8ff}}]]></style><path d="M0 0v708.66h498.9V0Z" style="fill:var(--svg-paper-bg, #ffffff)!important"/><g transform="matrix(1 0 0 -1 28.35 36.24)"><use class="t" href="#a"/><use x="8.99" class="t" href="#b"/><use x="14.47" class="t" href="#c"/><use x="20.98" class="t" href="#d"/><use x="30.05" class="t" href="#e"/><use x="35.41" class="t" href="#c"/><use x="41.92" class="t" href="#d"/><use x="47.99" class="t" href="#e"/><use x="53.44" class="t" href="#d"/><use x="62.51" class="t" href="#f"/><use x="68.88" class="t" href="#g"/><use x="78.11" class="t" href="#h"/><use x="87.07" class="t" href="#i"/><use x="90.32" class="t" href="#j"/><use x="94.12" class="t" href="#k"/><use x="103.57" class="t" href="#j"/><use x="107.36" class="t" href="#k"/><use x="113.82" class="t" href="#e"/><use x="122.18" class="t" href="#l"/><use x="128.9" class="t" href="#m"/><use x="132.07" class="t" href="#e"/><use x="140.44" class="t" href="#n"/><use x="146.47" class="t" href="#e"/><use x="151.84" class="t" href="#i"/><use x="155.09" class="t" href="#c"/><use x="161.59" class="t" href="#o"/><use x="170.59" class="t" href="#d"/><use x="176.66" class="t" href="#p"/><use x="182.63" class="t" href="#h"/><use x="191.59" class="t" href="#c"/><use x="198.1" class="t" href="#m"/><use x="201.26" class="t" href="#p"/><use x="207.31" class="t" href="#b"/><use x="212.8" class="t" href="#d"/><use x="218.87" class="t" href="#e"/><use x="224.32" class="t" href="#d"/></g><g transform="matrix(1 0 0 -1 261.73 36.24)"><use class="t" href="#q"/><use x="4.3" class="t" href="#r"/><use x="13.62" class="t" href="#s"/><use x="17.48" class="t" href="#t"/><use x="22.96" class="t" href="#u"/></g><use class="t" href="#v" transform="matrix(1 0 0 -1 290.56 36.24)"/><image width="442.2" height="234.65" aria-label="A screenshot of developer tools showing that the glyphs file is loaded twice" href="image.6da5f4.2a8f59.webp" transform="translate(28.35 50.64)"/><g transform="matrix(1 0 0 -1 82.75 300.98)"><use class="t" href="#w"/><use x="5.82" class="t" href="#i"/><use x="9.07" class="t" href="#o"/><use x="15.07" class="t" href="#f"/><use x="21.44" class="t" href="#x"/><use x="25.81" class="t" href="#e"/><use x="34.18" class="t" href="#y"/><use x="39.76" class="t" href="#z"/><use x="45.59" class="t" href="#o"/><use x="51.59" class="t" href="#m"/><use x="54.76" class="t" href="#A"/><use x="60.94" class="t" href="#g"/><use x="67.16" class="t" href="#k"/><use x="73.62" class="t" href="#B"/><use x="81.3" class="t" href="#m"/><use x="84.47" class="t" href="#p"/><use x="90.52" class="t" href="#b"/><use x="96" class="t" href="#d"/><use x="102.07" class="t" href="#e"/><use x="107.52" class="t" href="#d"/><use x="116.59" class="t" href="#j"/><use x="120.38" class="t" href="#h"/><use x="129.35" class="t" href="#i"/><use x="132.6" class="t" href="#C"/><use x="137.74" class="t" href="#e"/><use x="142.98" class="t" href="#D"/><use x="148.62" class="t" href="#p"/><use x="154.67" class="t" href="#c"/><use x="161.17" class="t" href="#C"/><use x="166.31" class="t" href="#e"/><use x="174.67" class="t" href="#n"/><use x="180.59" class="t" href="#A"/><use x="189.77" class="t" href="#g"/><use x="196" class="t" href="#x"/><use x="200.36" class="t" href="#e"/><use x="205.73" class="t" href="#m"/><use x="208.9" class="t" href="#p"/><use x="214.94" class="t" href="#b"/><use x="220.43" class="t" href="#d"/><use x="229.5" class="t" href="#b"/><use x="234.98" class="t" href="#c"/><use x="241.49" class="t" href="#d"/><use x="250.56" class="t" href="#p"/><use x="256.61" class="t" href="#c"/><use x="263.11" class="t" href="#C"/><use x="268.25" class="t" href="#e"/><use x="276.61" class="t" href="#n"/><use x="282.53" class="t" href="#A"/><use x="291.71" class="t" href="#j"/><use x="295.5" class="t" href="#k"/><use x="301.96" class="t" href="#e"/><use x="310.32" class="t" href="#g"/><use x="316.55" class="t" href="#b"/><use x="322.03" class="t" href="#o"/><use x="328.03" class="t" href="#e"/></g><g transform="matrix(1 0 0 -1 28.35 323.28)"><use class="t" href="#E"/><use x="3.56" class="t" href="#F"/><use x="6.78" class="t" href="#G"/><use x="19.26" class="t" href="#c"/><use x="25.76" class="t" href="#p"/><use x="31.81" class="t" href="#j"/><use x="38.6" class="t" href="#b"/><use x="44.09" class="t" href="#c"/><use x="53.59" class="t" href="#e"/><use x="58.87" class="t" href="#H"/><use x="64.75" class="t" href="#g"/><use x="71.06" class="t" href="#e"/><use x="76.43" class="t" href="#x"/><use x="80.89" class="t" href="#j"/><use x="87.68" class="t" href="#i"/><use x="90.94" class="t" href="#c"/><use x="100.44" class="t" href="#I"/><use x="104.16" class="t" href="#x"/><use x="108.53" class="t" href="#p"/><use x="114.58" class="t" href="#c"/><use x="121.08" class="t" href="#j"/><use x="124.87" class="t" href="#e"/><use x="130.24" class="t" href="#c"/><use x="136.74" class="t" href="#d"/><use x="145.81" class="t" href="#B"/><use x="150.49" class="t" href="#j"/><use x="154.28" class="t" href="#f"/><use x="160.66" class="t" href="#J"/><use x="167.64" class="t" href="#D"/><use x="173.28" class="t" href="#B"/><use x="177.96" class="t" href="#p"/><use x="187.01" class="t" href="#E"/><use x="193.57" class="t" href="#b"/><use x="199.06" class="t" href="#B"/><use x="203.74" class="t" href="#K"/><use x="209.88" class="t" href="#e"/><use x="215.33" class="t" href="#d"/><use x="224.4" class="t" href="#j"/><use x="228.19" class="t" href="#k"/><use x="234.65" class="t" href="#e"/><use x="243.01" class="t" href="#G"/><use x="252.49" class="t" href="#p"/><use x="258.62" class="t" href="#d"/><use x="264.7" class="t" href="#e"/><use x="270.06" class="t" href="#m"/><use x="273.23" class="t" href="#B"/><use x="277.91" class="t" href="#D"/><use x="283.55" class="t" href="#B"/><use x="288.23" class="t" href="#g"/><use x="294.54" class="t" href="#e"/><use x="299.9" class="t" href="#c"/><use x="306.41" class="t" href="#j"/><use x="313.2" class="t" href="#b"/><use x="321.68" class="t" href="#k"/><use x="328.14" class="t" href="#p"/><use x="334.19" class="t" href="#f"/><use x="340.56" class="t" href="#x"/><use x="348.02" class="t" href="#j"/><use x="351.82" class="t" href="#b"/><use x="357.3" class="t" href="#G"/><use x="366.78" class="t" href="#g"/><use x="373.09" class="t" href="#e"/><use x="378.46" class="t" href="#x"/><use x="382.92" class="t" href="#i"/><use x="386.17" class="t" href="#c"/><use x="392.68" class="t" href="#o"/><use x="401.68" class="t" href="#h"/><use x="410.64" class="t" href="#i"/><use x="413.89" class="t" href="#j"/><use x="417.68" class="t" href="#k"/></g><g transform="translate(28.35 331.68)"><path d="M0 0c0-1.06.86-1.92 1.92-1.92h57.8c1.06 0 1.92.86 1.92 1.92v7.3c0 1.05-.86 1.91-1.92 1.91H1.92A1.9 1.9 0 0 1 0 7.3Z" class="theme-code-bg"/><g transform="matrix(1 0 0 -1 1.92 7.3)"><use class="t" href="#L"/><use x="5.78" class="t" href="#M"/><use x="11.56" class="t" href="#N"/><use x="17.34" class="t" href="#O"/><use x="23.12" class="t" href="#P"/><use x="28.9" class="t" href="#Q"/><use x="34.68" class="t" href="#L"/><use x="40.46" class="t" href="#R"/><use x="46.24" class="t" href="#S"/><use x="52.02" class="t" href="#O"/></g><a href="#action=copy:f0e603ba02" aria-label="Copy" tabindex="-1" role="button"><title>Copy</title>
                            <path fill="transparent" d="M0 0h61.64v7.29H0z"/>
                        </a></g><use class="t" href="#D" transform="matrix(1 0 0 -1 89.98 338.98)"/><g transform="translate(95.62 331.68)"><path d="M0 0c0-1.06.86-1.92 1.92-1.92h57.8c1.06 0 1.92.86 1.92 1.92v7.3c0 1.05-.86 1.91-1.92 1.91H1.92A1.9 1.9 0 0 1 0 7.3Z" class="theme-code-bg"/><g transform="matrix(1 0 0 -1 1.92 7.3)"><use class="t" href="#L"/><use x="5.78" class="t" href="#M"/><use x="11.56" class="t" href="#N"/><use x="17.34" class="t" href="#O"/><use x="23.12" class="t" href="#T"/><use x="28.9" class="t" href="#S"/><use x="34.68" class="t" href="#U"/><use x="40.46" class="t" href="#V"/><use x="46.24" class="t" href="#W"/><use x="52.02" class="t" href="#O"/></g><a href="#action=copy:f8ec147408" aria-label="Copy" tabindex="-1" role="button"><title>Copy</title>
                            <path fill="transparent" d="M0 0h61.64v7.29H0z"/>
                        </a></g><g transform="matrix(1 0 0 -1 157.26 338.98)"><use x="3" class="t" href="#b"/><use x="8.48" class="t" href="#c"/><use x="14.99" class="t" href="#d"/></g><g transform="translate(181.32 331.68)"><path d="M0 0c0-1.06.86-1.92 1.92-1.92H65.5c1.06 0 1.92.86 1.92 1.92v7.3c0 1.05-.86 1.91-1.92 1.91H1.92A1.9 1.9 0 0 1 0 7.3Z" class="theme-code-bg"/><g transform="matrix(1 0 0 -1 1.92 7.3)"><use class="t" href="#V"/><use x="5.78" class="t" href="#X"/><use x="11.56" class="t" href="#Y"/><use x="17.34" class="t" href="#M"/><use x="23.12" class="t" href="#M"/><use x="28.9" class="t" href="#Y"/><use x="34.68" class="t" href="#X"/><use x="40.46" class="t" href="#P"/><use x="46.24" class="t" href="#R"/><use x="52.02" class="t" href="#P"/><use x="57.8" class="t" href="#Z"/></g><a href="#action=copy:31f1c46641" aria-label="Copy" tabindex="-1" role="button"><title>Copy</title>
                            <path fill="transparent" d="M0 0h67.42v7.29H0z"/>
                        </a></g><g transform="matrix(1 0 0 -1 248.74 338.98)"><use x="3" class="t" href="#b"/><use x="8.48" class="t" href="#j"/><use x="12.28" class="t" href="#j"/><use x="16.07" class="t" href="#x"/><use x="20.53" class="t" href="#i"/><use x="23.78" class="t" href="#n"/><use x="29.7" class="t" href="#f"/><use x="36.07" class="t" href="#j"/><use x="39.86" class="t" href="#e"/><use x="45.23" class="t" href="#B"/><use x="49.91" class="t" href="#D"/><use x="55.55" class="t" href="#n"/><use x="61.46" class="t" href="#f"/><use x="67.84" class="t" href="#j"/><use x="74.63" class="t" href="#c"/><use x="81.13" class="t" href="#p"/><use x="87.18" class="t" href="#j"/><use x="90.97" class="t" href="#k"/><use x="97.43" class="t" href="#i"/><use x="100.68" class="t" href="#c"/><use x="107.18" class="t" href="#o"/><use x="116.18" class="t" href="#h"/><use x="125.05" class="t" href="#p"/><use x="131.1" class="t" href="#x"/><use x="135.56" class="t" href="#K"/><use x="141.71" class="t" href="#e"/><use x="147.16" class="t" href="#d"/><use x="153.23" class="t" href="#v"/><use x="158.87" class="t" href="#aa"/><use x="166.03" class="t" href="#k"/><use x="172.49" class="t" href="#e"/><use x="177.85" class="t" href="#c"/><use x="187.36" class="t" href="#E"/><use x="193.92" class="t" href="#C"/><use x="199.06" class="t" href="#b"/><use x="204.54" class="t" href="#G"/><use x="214.02" class="t" href="#e"/></g><g transform="matrix(1 0 0 -1 28.35 354.67)"><use class="t" href="#b"/><use x="5.48" class="t" href="#C"/><use x="10.62" class="t" href="#x"/><use x="14.99" class="t" href="#p"/><use x="21.04" class="t" href="#B"/><use x="25.72" class="t" href="#B"/><use x="33.4" class="t" href="#j"/><use x="37.19" class="t" href="#k"/><use x="43.64" class="t" href="#e"/><use x="52.01" class="t" href="#b"/><use x="57.49" class="t" href="#x"/><use x="61.96" class="t" href="#j"/><use x="65.75" class="t" href="#i"/><use x="69" class="t" href="#C"/><use x="74.14" class="t" href="#m"/><use x="77.3" class="t" href="#e"/><use x="85.67" class="t" href="#m"/><use x="88.84" class="t" href="#i"/><use x="92.09" class="t" href="#c"/><use x="98.59" class="t" href="#K"/><use x="104.74" class="t" href="#e"/><use x="110.18" class="t" href="#d"/><use x="119.26" class="t" href="#b"/><use x="124.74" class="t" href="#j"/><use x="131.53" class="t" href="#j"/><use x="135.32" class="t" href="#k"/><use x="141.78" class="t" href="#e"/><use x="150.14" class="t" href="#j"/><use x="153.94" class="t" href="#p"/><use x="159.98" class="t" href="#g"/><use x="169.21" class="t" href="#b"/><use x="174.7" class="t" href="#c"/><use x="181.2" class="t" href="#d"/><use x="190.27" class="t" href="#m"/><use x="193.44" class="t" href="#e"/><use x="198.8" class="t" href="#b"/><use x="204.29" class="t" href="#x"/><use x="208.75" class="t" href="#c"/><use x="215.26" class="t" href="#e"/><use x="220.7" class="t" href="#d"/><use x="229.78" class="t" href="#j"/><use x="233.57" class="t" href="#k"/><use x="240.02" class="t" href="#b"/><use x="245.51" class="t" href="#j"/><use x="252.3" class="t" href="#j"/><use x="256.09" class="t" href="#k"/><use x="262.55" class="t" href="#i"/><use x="265.8" class="t" href="#B"/><use x="273.48" class="t" href="#i"/><use x="276.73" class="t" href="#B"/><use x="284.41" class="t" href="#b"/><use x="292.9" class="t" href="#h"/><use x="301.76" class="t" href="#e"/><use x="307.13" class="t" href="#m"/><use x="310.3" class="t" href="#m"/><use x="313.46" class="t" href="#ab"/><use x="317.52" class="t" href="#K"/><use x="323.66" class="t" href="#c"/><use x="330.17" class="t" href="#p"/><use x="336.13" class="t" href="#h"/><use x="345.1" class="t" href="#c"/><use x="354.6" class="t" href="#m"/><use x="357.77" class="t" href="#i"/><use x="361.02" class="t" href="#G"/><use x="370.5" class="t" href="#i"/><use x="373.75" class="t" href="#j"/><use x="377.54" class="t" href="#b"/><use x="383.03" class="t" href="#j"/><use x="386.82" class="t" href="#i"/><use x="390.07" class="t" href="#p"/><use x="396.12" class="t" href="#c"/><use x="402.62" class="t" href="#v"/></g><g transform="matrix(1 0 0 -1 28.35 376.97)"><use class="t" href="#ac"/><use x="8.34" class="t" href="#j"/><use x="15.13" class="t" href="#j"/><use x="18.92" class="t" href="#k"/><use x="25.38" class="t" href="#b"/><use x="30.86" class="t" href="#j"/><use x="37.66" class="t" href="#g"/><use x="43.97" class="t" href="#p"/><use x="50.02" class="t" href="#i"/><use x="53.27" class="t" href="#c"/><use x="59.77" class="t" href="#j"/><use x="66.56" class="t" href="#E"/><use x="73.13" class="t" href="#l"/><use x="79.85" class="t" href="#o"/><use x="85.85" class="t" href="#f"/><use x="92.22" class="t" href="#x"/><use x="96.59" class="t" href="#e"/><use x="102.04" class="t" href="#d"/><use x="108.11" class="t" href="#z"/><use x="113.94" class="t" href="#E"/><use x="117.5" class="t" href="#I"/><use x="124.22" class="t" href="#j"/><use x="128.02" class="t" href="#k"/><use x="134.47" class="t" href="#e"/><use x="142.84" class="t" href="#n"/><use x="148.75" class="t" href="#x"/><use x="153.12" class="t" href="#p"/><use x="159.08" class="t" href="#h"/><use x="168.05" class="t" href="#B"/><use x="172.73" class="t" href="#e"/><use x="178.09" class="t" href="#x"/><use x="185.56" class="t" href="#p"/><use x="191.6" class="t" href="#c"/><use x="198.11" class="t" href="#m"/><use x="201.28" class="t" href="#A"/><use x="210.46" class="t" href="#m"/><use x="213.62" class="t" href="#p"/><use x="219.67" class="t" href="#b"/><use x="225.16" class="t" href="#d"/><use x="231.23" class="t" href="#B"/><use x="238.91" class="t" href="#j"/><use x="242.7" class="t" href="#k"/><use x="249.16" class="t" href="#e"/><use x="257.52" class="t" href="#B"/><use x="262.2" class="t" href="#g"/><use x="268.43" class="t" href="#x"/><use x="272.89" class="t" href="#i"/><use x="276.14" class="t" href="#j"/><use x="279.94" class="t" href="#e"/><use x="288.3" class="t" href="#h"/><use x="297.26" class="t" href="#k"/><use x="303.72" class="t" href="#e"/><use x="309.08" class="t" href="#c"/><use x="318.59" class="t" href="#i"/><use x="321.84" class="t" href="#j"/><use x="328.63" class="t" href="#B"/><use x="333.31" class="t" href="#e"/><use x="338.76" class="t" href="#e"/><use x="344.12" class="t" href="#B"/><use x="351.8" class="t" href="#b"/><use x="360.29" class="t" href="#x"/><use x="364.66" class="t" href="#e"/><use x="370.02" class="t" href="#I"/><use x="373.74" class="t" href="#e"/><use x="379.1" class="t" href="#x"/><use x="383.47" class="t" href="#e"/><use x="388.84" class="t" href="#c"/><use x="395.34" class="t" href="#C"/><use x="400.48" class="t" href="#e"/><use x="408.84" class="t" href="#j"/><use x="412.63" class="t" href="#p"/><use x="421.68" class="t" href="#i"/><use x="424.93" class="t" href="#j"/><use x="428.72" class="t" href="#D"/></g><g transform="matrix(1 0 0 -1 28.35 392.66)"><use class="t" href="#h"/><use x="8.96" class="t" href="#k"/><use x="15.42" class="t" href="#A"/><use x="24.6" class="t" href="#d"/><use x="30.67" class="t" href="#p"/><use x="36.72" class="t" href="#c"/><use x="43.22" class="t" href="#F"/><use x="46.44" class="t" href="#j"/><use x="53.23" class="t" href="#E"/><use x="59.8" class="t" href="#i"/><use x="63.05" class="t" href="#c"/><use x="69.55" class="t" href="#B"/><use x="74.23" class="t" href="#e"/><use x="79.6" class="t" href="#x"/><use x="84.06" class="t" href="#j"/><use x="90.85" class="t" href="#b"/><use x="99.34" class="t" href="#B"/><use x="104.02" class="t" href="#G"/><use x="113.5" class="t" href="#b"/><use x="118.98" class="t" href="#m"/><use x="122.15" class="t" href="#m"/><use x="128.32" class="t" href="#i"/><use x="131.57" class="t" href="#G"/><use x="141.05" class="t" href="#b"/><use x="146.53" class="t" href="#o"/><use x="152.53" class="t" href="#e"/><use x="160.9" class="t" href="#j"/><use x="164.69" class="t" href="#p"/><use x="173.74" class="t" href="#m"/><use x="176.9" class="t" href="#p"/><use x="182.95" class="t" href="#b"/><use x="188.44" class="t" href="#d"/><use x="197.51" class="t" href="#i"/><use x="200.76" class="t" href="#j"/><use x="207.55" class="t" href="#n"/><use x="213.59" class="t" href="#e"/><use x="218.95" class="t" href="#I"/><use x="222.67" class="t" href="#p"/><use x="228.72" class="t" href="#x"/><use x="233.09" class="t" href="#e"/><use x="241.45" class="t" href="#j"/><use x="245.24" class="t" href="#k"/><use x="251.7" class="t" href="#e"/><use x="260.06" class="t" href="#g"/><use x="266.29" class="t" href="#b"/><use x="271.78" class="t" href="#o"/><use x="277.78" class="t" href="#e"/><use x="283.14" class="t" href="#B"/><use x="290.82" class="t" href="#b"/><use x="296.3" class="t" href="#x"/><use x="300.67" class="t" href="#e"/><use x="309.04" class="t" href="#m"/><use x="312.2" class="t" href="#p"/><use x="318.25" class="t" href="#b"/><use x="323.74" class="t" href="#d"/><use x="329.81" class="t" href="#e"/><use x="335.26" class="t" href="#d"/><use x="341.33" class="t" href="#ad"/><use x="349.55" class="t" href="#ae"/><use x="355.37" class="t" href="#p"/><use x="364.42" class="t" href="#E"/><use x="370.98" class="t" href="#b"/><use x="376.46" class="t" href="#d"/><use x="382.54" class="t" href="#d"/><use x="388.61" class="t" href="#e"/><use x="394.06" class="t" href="#d"/><use x="403.13" class="t" href="#j"/><use x="406.92" class="t" href="#k"/><use x="413.38" class="t" href="#i"/><use x="416.63" class="t" href="#B"/></g><g transform="matrix(1 0 0 -1 28.35 408.36)"><use class="t" href="#m"/><use x="3.17" class="t" href="#i"/><use x="6.42" class="t" href="#c"/><use x="12.92" class="t" href="#e"/><use x="18.29" class="t" href="#z"/></g><g transform="translate(28.35 422.76)"><path d="M0 2.88C0 1.28 1.29 0 2.88 0h436.44c1.6 0 2.88 1.29 2.88 2.88v44.37a2.87 2.87 0 0 1-2.88 2.88H2.88A2.9 2.9 0 0 1 0 47.25Z" class="theme-code-bg"/><use class="t" href="#af" transform="matrix(1 0 0 -1 9.6 16.16)"/><g transform="matrix(1 0 0 -1 14.8 16.16)"><use class="theme-code-blue" href="#ag"/><use x="5.2" class="theme-code-blue" href="#ah"/><use x="10.4" class="theme-code-blue" href="#ai"/></g><g transform="matrix(1 0 0 -1 35.6 16.16)"><use class="theme-code-violet" href="#aj"/><use x="5.2" class="theme-code-violet" href="#ak"/><use x="10.4" class="theme-code-violet" href="#al"/><use x="15.61" class="theme-code-violet" href="#aj"/><use x="20.81" class="theme-code-violet" href="#am"/><use x="26.01" class="theme-code-violet" href="#an"/><use x="31.21" class="theme-code-violet" href="#al"/><use x="36.41" class="theme-code-violet" href="#ao"/><use x="41.61" class="theme-code-violet" href="#ao"/><use x="46.82" class="theme-code-violet" href="#ap"/><use x="52.02" class="theme-code-violet" href="#aq"/></g><use class="t" href="#ar" transform="matrix(1 0 0 -1 92.83 16.16)"/><use class="theme-code-green" href="#as" transform="matrix(1 0 0 -1 98.03 16.16)"/><g transform="matrix(1 0 0 -1 103.23 16.16)"><use class="theme-code-green" href="#at"/><use x="5.2" class="theme-code-green" href="#ak"/><use x="10.4" class="theme-code-green" href="#au"/><use x="15.61" class="theme-code-green" href="#ap"/></g><use class="theme-code-green" href="#as" transform="matrix(1 0 0 -1 124.04 16.16)"/><g transform="matrix(1 0 0 -1 134.44 16.16)"><use class="theme-code-violet" href="#av"/><use x="5.2" class="theme-code-violet" href="#al"/><use x="10.4" class="theme-code-violet" href="#ao"/><use x="15.61" class="theme-code-violet" href="#at"/><use x="20.81" class="theme-code-violet" href="#an"/></g><use class="t" href="#ar" transform="matrix(1 0 0 -1 160.45 16.16)"/><use class="theme-code-green" href="#as" transform="matrix(1 0 0 -1 165.65 16.16)"/><use class="theme-code-green" href="#aw" transform="matrix(1 0 0 -1 170.85 16.16)"/><use class="theme-code-green" href="#as" transform="matrix(1 0 0 -1 176.06 16.16)"/><g transform="matrix(1 0 0 -1 186.46 16.16)"><use class="theme-code-violet" href="#an"/><use x="5.2" class="theme-code-violet" href="#ap"/><use x="10.4" class="theme-code-violet" href="#al"/><use x="15.61" class="theme-code-violet" href="#ai"/><use x="20.81" class="theme-code-violet" href="#an"/><use x="26.01" class="theme-code-violet" href="#at"/></g><use class="t" href="#ar" transform="matrix(1 0 0 -1 217.67 16.16)"/><use class="theme-code-green" href="#as" transform="matrix(1 0 0 -1 222.87 16.16)"/><use class="theme-code-green" href="#aw" transform="matrix(1 0 0 -1 228.07 16.16)"/><use class="theme-code-green" href="#as" transform="matrix(1 0 0 -1 233.27 16.16)"/><g transform="matrix(1 0 0 -1 9.6 28.34)"><use class="theme-code-violet" href="#ag"/><use x="5.2" class="theme-code-violet" href="#at"/><use x="10.4" class="theme-code-violet" href="#ax"/><use x="15.61" class="theme-code-violet" href="#ay"/><use x="20.81" class="theme-code-violet" href="#ap"/></g><use class="t" href="#ar" transform="matrix(1 0 0 -1 35.6 28.34)"/><use class="theme-code-green" href="#as" transform="matrix(1 0 0 -1 40.81 28.34)"/><g transform="matrix(1 0 0 -1 46.01 28.34)"><use class="theme-code-blue" href="#az"/><use x="5.2" class="theme-code-blue" href="#aA"/><use x="10.4" class="theme-code-blue" href="#ag"/><use x="15.61" class="theme-code-blue" href="#al"/><use x="20.81" class="theme-code-blue" href="#at"/><use x="26.01" class="theme-code-blue" href="#al"/><use x="31.21" class="theme-code-blue" href="#aA"/><use x="36.41" class="theme-code-blue" href="#aq"/></g><use class="t" href="#aB" transform="matrix(1 0 0 -1 87.63 28.34)"/><g transform="matrix(1 0 0 -1 92.83 28.34)"><use class="theme-code-blue" href="#aj"/><use x="5.2" class="theme-code-blue" href="#aC"/><use x="10.4" class="theme-code-blue" href="#ag"/><use x="15.61" class="theme-code-blue" href="#aA"/><use x="20.81" class="theme-code-blue" href="#ay"/><use x="26.01" class="theme-code-blue" href="#au"/><use x="31.21" class="theme-code-blue" href="#at"/><use x="36.41" class="theme-code-blue" href="#ap"/></g><use class="t" href="#aD" transform="matrix(1 0 0 -1 134.44 28.34)"/><g transform="matrix(1 0 0 -1 139.64 28.34)"><use class="theme-code-blue" href="#aA"/><use x="5.2" class="theme-code-blue" href="#az"/><use x="10.4" class="theme-code-blue" href="#aj"/><use x="15.61" class="theme-code-blue" href="#aE"/><use x="20.81" class="theme-code-blue" href="#al"/><use x="26.01" class="theme-code-blue" href="#at"/><use x="31.21" class="theme-code-blue" href="#ax"/></g><use class="t" href="#aB" transform="matrix(1 0 0 -1 176.06 28.34)"/><use href="#aw" style="fill:var(--svg-code-magenta, #b60157)!important" transform="matrix(1 0 0 -1 181.26 28.34)"/><use class="t" href="#aD" transform="matrix(1 0 0 -1 186.46 28.34)"/><g transform="matrix(1 0 0 -1 191.66 28.34)"><use class="theme-code-blue" href="#az"/><use x="5.2" class="theme-code-blue" href="#aA"/><use x="10.4" class="theme-code-blue" href="#al"/><use x="15.61" class="theme-code-blue" href="#aq"/><use x="20.81" class="theme-code-blue" href="#at"/><use x="26.01" class="theme-code-blue" href="#ap"/><use x="31.21" class="theme-code-blue" href="#ak"/><use x="36.41" class="theme-code-blue" href="#am"/><use x="41.61" class="theme-code-blue" href="#ap"/><use x="46.82" class="theme-code-blue" href="#ah"/><use x="52.02" class="theme-code-blue" href="#ap"/><use x="57.22" class="theme-code-blue" href="#aq"/><use x="62.42" class="theme-code-blue" href="#at"/><use x="67.62" class="theme-code-blue" href="#ag"/></g><use class="t" href="#aB" transform="matrix(1 0 0 -1 264.48 28.34)"/><g transform="matrix(1 0 0 -1 269.69 28.34)"><use class="theme-code-blue" href="#aq"/><use x="5.2" class="theme-code-blue" href="#aA"/><use x="10.4" class="theme-code-blue" href="#aq"/><use x="15.61" class="theme-code-blue" href="#ap"/></g><use class="theme-code-green" href="#as" transform="matrix(1 0 0 -1 290.5 28.34)"/><use class="t" href="#aF" transform="matrix(1 0 0 -1 295.7 28.34)"/><use class="t" href="#af" transform="matrix(1 0 0 -1 300.9 28.34)"/><g transform="matrix(1 0 0 -1 306.1 28.34)"><use class="theme-code-blue" href="#au"/><use x="5.2" class="theme-code-blue" href="#ag"/><use x="10.4" class="theme-code-blue" href="#ap"/></g><g transform="matrix(1 0 0 -1 326.9 28.34)"><use class="theme-code-violet" href="#an"/><use x="5.2" class="theme-code-violet" href="#ak"/><use x="10.4" class="theme-code-violet" href="#ap"/><use x="15.61" class="theme-code-violet" href="#aG"/></g><use class="t" href="#ar" transform="matrix(1 0 0 -1 347.71 28.34)"/><use class="theme-code-green" href="#as" transform="matrix(1 0 0 -1 352.91 28.34)"/><g transform="matrix(1 0 0 -1 358.12 28.34)"><use class="theme-code-green" href="#aH"/><use x="5.2" class="theme-code-green" href="#aI"/><use x="10.4" class="theme-code-green" href="#aj"/><use x="15.61" class="theme-code-green" href="#ag"/><use x="20.81" class="theme-code-green" href="#ag"/><use x="26.01" class="theme-code-green" href="#ap"/><use x="31.21" class="theme-code-green" href="#at"/><use x="36.41" class="theme-code-green" href="#ag"/><use x="41.61" class="theme-code-green" href="#aI"/></g><g transform="matrix(1 0 0 -1 9.6 40.53)"><use class="theme-code-green" href="#ai"/><use x="5.2" class="theme-code-green" href="#ay"/><use x="10.4" class="theme-code-green" href="#ax"/><use x="15.61" class="theme-code-green" href="#az"/><use x="20.81" class="theme-code-green" href="#an"/><use x="26.01" class="theme-code-green" href="#ag"/><use x="31.21" class="theme-code-green" href="#aH"/><use x="36.41" class="theme-code-green" href="#ag"/><use x="41.61" class="theme-code-green" href="#ah"/><use x="46.82" class="theme-code-green" href="#ai"/><use x="52.02" class="theme-code-green" href="#aJ"/><use x="57.22" class="theme-code-green" href="#ai"/><use x="62.42" class="theme-code-green" href="#aK"/></g><use class="theme-code-green" href="#as" transform="matrix(1 0 0 -1 77.22 40.53)"/><use class="t" href="#aF" transform="matrix(1 0 0 -1 82.42 40.53)"/><g transform="matrix(1 0 0 -1 87.63 40.53)"><use class="t" href="#af"/><use x="5.2" class="t" href="#aI"/></g><g transform="matrix(1 0 0 -1 98.03 40.53)"><use class="theme-code-blue" href="#au"/><use x="5.2" class="theme-code-blue" href="#ag"/><use x="10.4" class="theme-code-blue" href="#ap"/></g><use class="t" href="#aF" transform="matrix(1 0 0 -1 113.63 40.53)"/><g transform="matrix(1 0 0 -1 118.84 40.53)"><use class="t" href="#af"/><use x="5.2" class="t" href="#aI"/></g><g transform="matrix(1 0 0 -1 129.24 40.53)"><use class="theme-code-blue" href="#ag"/><use x="5.2" class="theme-code-blue" href="#ah"/><use x="10.4" class="theme-code-blue" href="#ai"/></g><use class="t" href="#aF" transform="matrix(1 0 0 -1 144.84 40.53)"/><a href="#action=copy:7554c20d33" aria-label="Copy" role="button"><title>Copy</title>
                    <path fill="transparent" d="M0 0h442.2v50.13H0z"/>
                </a></g><g transform="matrix(1 0 0 -1 28.35 495.18)"><use class="t" href="#E"/><use x="6.56" class="t" href="#B"/><use x="11.24" class="t" href="#k"/><use x="17.7" class="t" href="#p"/><use x="23.75" class="t" href="#f"/><use x="30.12" class="t" href="#m"/><use x="33.29" class="t" href="#d"/><use x="42.36" class="t" href="#B"/><use x="47.04" class="t" href="#b"/><use x="52.52" class="t" href="#A"/><use x="61.7" class="t" href="#i"/><use x="64.96" class="t" href="#j"/><use x="71.75" class="t" href="#d"/><use x="77.82" class="t" href="#p"/><use x="83.95" class="t" href="#e"/><use x="89.32" class="t" href="#B"/><use x="97" class="t" href="#h"/><use x="105.86" class="t" href="#p"/><use x="111.91" class="t" href="#x"/><use x="116.38" class="t" href="#K"/><use x="122.52" class="t" href="#v"/><use x="128.16" class="t" href="#ac"/><use x="136.5" class="t" href="#m"/><use x="139.67" class="t" href="#j"/><use x="143.46" class="t" href="#k"/><use x="149.92" class="t" href="#p"/><use x="155.96" class="t" href="#f"/><use x="162.34" class="t" href="#o"/><use x="168.34" class="t" href="#k"/><use x="177.79" class="t" href="#j"/><use x="181.58" class="t" href="#k"/><use x="188.04" class="t" href="#e"/><use x="196.4" class="t" href="#o"/><use x="202.4" class="t" href="#m"/><use x="205.57" class="t" href="#A"/><use x="211.75" class="t" href="#g"/><use x="217.98" class="t" href="#k"/><use x="224.44" class="t" href="#B"/><use x="232.12" class="t" href="#l"/><use x="238.84" class="t" href="#m"/><use x="242" class="t" href="#e"/><use x="250.37" class="t" href="#i"/><use x="253.62" class="t" href="#B"/><use x="261.3" class="t" href="#B"/><use x="265.98" class="t" href="#j"/><use x="269.77" class="t" href="#i"/><use x="273.02" class="t" href="#m"/><use x="276.19" class="t" href="#m"/><use x="282.36" class="t" href="#c"/><use x="288.86" class="t" href="#p"/><use x="294.91" class="t" href="#j"/><use x="301.7" class="t" href="#I"/><use x="305.42" class="t" href="#f"/><use x="311.8" class="t" href="#m"/><use x="314.96" class="t" href="#m"/><use x="318.13" class="t" href="#A"/><use x="327.31" class="t" href="#m"/><use x="330.48" class="t" href="#p"/><use x="336.53" class="t" href="#b"/><use x="342.01" class="t" href="#d"/><use x="348.08" class="t" href="#e"/><use x="353.53" class="t" href="#d"/><use x="362.6" class="t" href="#aL"/><use x="366.18" class="t" href="#i"/><use x="369.43" class="t" href="#j"/><use x="376.22" class="t" href="#i"/><use x="379.48" class="t" href="#B"/><use x="387.16" class="t" href="#p"/><use x="393.12" class="t" href="#aM"/><use x="398.99" class="t" href="#e"/><use x="404.35" class="t" href="#x"/><use x="411.82" class="t" href="#aN"/><use x="417.4" class="t" href="#aO"/></g><g transform="matrix(1 0 0 -1 28.35 510.88)"><use class="t" href="#aP"/><use x="7.64" class="t" href="#i"/><use x="10.9" class="t" href="#aQ"/><use x="17.95" class="t" href="#aR"/><use x="21.41" class="t" href="#aS"/><use x="27.98" class="t" href="#f"/><use x="34.36" class="t" href="#c"/><use x="40.86" class="t" href="#j"/><use x="44.65" class="t" href="#i"/><use x="47.9" class="t" href="#m"/><use x="54.07" class="t" href="#j"/><use x="57.86" class="t" href="#k"/><use x="64.32" class="t" href="#e"/><use x="72.68" class="t" href="#g"/><use x="78.91" class="t" href="#b"/><use x="84.4" class="t" href="#o"/><use x="90.4" class="t" href="#e"/><use x="95.76" class="t" href="#B"/><use x="103.44" class="t" href="#k"/><use x="109.9" class="t" href="#b"/><use x="115.38" class="t" href="#B"/><use x="123.06" class="t" href="#n"/><use x="129.1" class="t" href="#e"/><use x="134.54" class="t" href="#e"/><use x="139.91" class="t" href="#c"/><use x="149.41" class="t" href="#m"/><use x="152.58" class="t" href="#p"/><use x="158.63" class="t" href="#b"/><use x="164.11" class="t" href="#d"/><use x="170.18" class="t" href="#e"/><use x="175.63" class="t" href="#d"/><use x="184.7" class="t" href="#p"/><use x="190.75" class="t" href="#c"/><use x="200.26" class="t" href="#j"/><use x="204.05" class="t" href="#k"/><use x="210.5" class="t" href="#e"/><use x="218.87" class="t" href="#l"/><use x="225.59" class="t" href="#x"/><use x="230.05" class="t" href="#B"/><use x="234.73" class="t" href="#j"/><use x="241.52" class="t" href="#aM"/><use x="247.49" class="t" href="#i"/><use x="250.74" class="t" href="#B"/><use x="255.42" class="t" href="#i"/><use x="258.67" class="t" href="#j"/><use x="262.46" class="t" href="#D"/><use x="268.1" class="t" href="#i"/><use x="271.36" class="t" href="#j"/><use x="278.15" class="t" href="#B"/><use x="282.83" class="t" href="#j"/><use x="286.62" class="t" href="#i"/><use x="289.87" class="t" href="#m"/><use x="293.04" class="t" href="#m"/><use x="299.21" class="t" href="#C"/><use x="304.34" class="t" href="#f"/><use x="310.72" class="t" href="#j"/><use x="314.51" class="t" href="#B"/><use x="322.19" class="t" href="#j"/><use x="325.98" class="t" href="#k"/><use x="332.44" class="t" href="#e"/><use x="340.8" class="t" href="#n"/><use x="346.72" class="t" href="#m"/><use x="349.88" class="t" href="#b"/><use x="355.37" class="t" href="#C"/><use x="360.5" class="t" href="#K"/><use x="369.65" class="t" href="#B"/><use x="374.33" class="t" href="#C"/><use x="379.46" class="t" href="#x"/><use x="383.83" class="t" href="#e"/><use x="389.28" class="t" href="#e"/><use x="394.64" class="t" href="#c"/><use x="404.15" class="t" href="#j"/><use x="407.94" class="t" href="#i"/><use x="411.19" class="t" href="#G"/><use x="420.67" class="t" href="#e"/><use x="429.04" class="t" href="#n"/><use x="434.95" class="t" href="#A"/></g><g transform="matrix(1 0 0 -1 28.35 526.57)"><use class="t" href="#j"/><use x="3.79" class="t" href="#k"/><use x="10.25" class="t" href="#x"/><use x="14.62" class="t" href="#e"/><use x="20.06" class="t" href="#e"/><use x="28.43" class="t" href="#aT"/><use x="34.46" class="t" href="#f"/><use x="40.84" class="t" href="#b"/><use x="46.32" class="t" href="#x"/><use x="50.78" class="t" href="#j"/><use x="54.58" class="t" href="#e"/><use x="59.94" class="t" href="#x"/><use x="64.4" class="t" href="#B"/><use x="69.08" class="t" href="#v"/><use x="74.72" class="t" href="#aU"/><use x="83.15" class="t" href="#c"/><use x="92.65" class="t" href="#B"/><use x="97.33" class="t" href="#f"/><use x="103.7" class="t" href="#n"/><use x="109.62" class="t" href="#B"/><use x="114.3" class="t" href="#e"/><use x="119.75" class="t" href="#aT"/><use x="125.78" class="t" href="#f"/><use x="132.16" class="t" href="#e"/><use x="137.52" class="t" href="#c"/><use x="144.02" class="t" href="#j"/><use x="150.82" class="t" href="#aM"/><use x="156.78" class="t" href="#i"/><use x="160.03" class="t" href="#B"/><use x="164.71" class="t" href="#i"/><use x="167.96" class="t" href="#j"/><use x="171.76" class="t" href="#B"/><use x="179.44" class="t" href="#j"/><use x="183.23" class="t" href="#p"/><use x="192.28" class="t" href="#b"/><use x="197.76" class="t" href="#c"/><use x="204.26" class="t" href="#A"/><use x="213.44" class="t" href="#g"/><use x="219.67" class="t" href="#b"/><use x="225.16" class="t" href="#o"/><use x="231.16" class="t" href="#e"/><use x="236.4" class="t" href="#D"/><use x="242.04" class="t" href="#i"/><use x="245.29" class="t" href="#j"/><use x="252.08" class="t" href="#n"/><use x="258.12" class="t" href="#e"/><use x="263.57" class="t" href="#C"/><use x="268.7" class="t" href="#p"/><use x="274.75" class="t" href="#G"/><use x="284.23" class="t" href="#e"/><use x="292.6" class="t" href="#i"/><use x="295.85" class="t" href="#c"/><use x="302.35" class="t" href="#B"/><use x="307.03" class="t" href="#j"/><use x="310.82" class="t" href="#b"/><use x="316.31" class="t" href="#c"/><use x="322.81" class="t" href="#j"/><use x="326.6" class="t" href="#v"/></g><g transform="matrix(1 0 0 -1 28.35 695.4)"><use class="theme-footer-text" href="#aV"/><use x="6.46" class="theme-footer-text" href="#aW"/><use x="12.09" class="theme-footer-text" href="#aX"/><use x="18.76" class="theme-footer-text" href="#aY"/><use x="23.37" class="theme-footer-text" href="#aZ"/><use x="26.48" class="theme-footer-text" href="#ba"/><use x="30.79" class="theme-footer-text" href="#bb"/><use x="35.56" class="theme-footer-text" href="#bc"/><use x="43.71" class="theme-footer-text" href="#aW"/><use x="49.34" class="theme-footer-text" href="#bd"/><use x="57.86" class="theme-footer-text" href="#be"/><use x="62.51" class="theme-footer-text" href="#bf"/><use x="67.16" class="theme-footer-text" href="#be"/><use x="71.81" class="theme-footer-text" href="#bg"/><use x="76.46" class="theme-footer-text" href="#bh"/><use x="79.84" class="theme-footer-text" href="#bf"/><use x="84.49" class="theme-footer-text" href="#bi"/><use x="89.14" class="theme-footer-text" href="#bh"/><use x="92.52" class="theme-footer-text" href="#bj"/><use x="97.17" class="theme-footer-text" href="#bk"/></g><use class="theme-footer-text" href="#be" transform="matrix(1 0 0 -1 465.9 695.4)"/><defs><symbol id="a" overflow="visible"><use href="/assets/glyphs.29ff99.svg#g1ne"/></symbol><symbol id="b" overflow="visible"><use href="/assets/glyphs.29ff99.svg#g2k"/></symbol><symbol id="c" overflow="visible"><use href="/assets/glyphs.29ff99.svg#g2m"/></symbol><symbol id="d" overflow="visible"><use href="/assets/glyphs.29ff99.svg#g41"/></symbol><symbol id="e" overflow="visible"><use href="/assets/glyphs.29ff99.svg#g2h"/></symbol><symbol id="f" overflow="visible"><use href="/assets/glyphs.29ff99.svg#g2e"/></symbol><symbol id="g" overflow="visible"><use href="/assets/glyphs.29ff99.svg#g2q"/></symbol><symbol id="h" overflow="visible"><use href="/assets/glyphs.29ff99.svg#g51"/></symbol><symbol id="i" overflow="visible"><use href="/assets/glyphs.29ff99.svg#g2l"/></symbol><symbol id="j" overflow="visible"><use href="/assets/glyphs.29ff99.svg#g2o"/></symbol><symbol id="k" overflow="visible"><use href="/assets/glyphs.29ff99.svg#g3r"/></symbol><symbol id="l" overflow="visible"><use href="/assets/glyphs.29ff99.svg#g3u"/></symbol><symbol id="m" overflow="visible"><use href="/assets/glyphs.29ff99.svg#g3t"/></symbol><symbol id="n" overflow="visible"><use href="/assets/glyphs.29ff99.svg#g3s"/></symbol><symbol id="o" overflow="visible"><use href="/assets/glyphs.29ff99.svg#g3w"/></symbol><symbol id="p" overflow="visible"><use href="/assets/glyphs.29ff99.svg#g2d"/></symbol><symbol id="q" overflow="visible"><use href="/assets/glyphs.29ff99.svg#gi"/></symbol><symbol id="r" overflow="visible"><use href="/assets/glyphs.29ff99.svg#gbg"/></symbol><symbol id="s" overflow="visible"><use href="/assets/glyphs.29ff99.svg#gk"/></symbol><symbol id="t" overflow="visible"><use href="/assets/glyphs.29ff99.svg#g1e"/></symbol><symbol id="u" overflow="visible"><use href="/assets/glyphs.29ff99.svg#gm"/></symbol><symbol id="v" overflow="visible"><use href="/assets/glyphs.29ff99.svg#g2n"/></symbol><symbol id="w" overflow="visible"><use href="/assets/glyphs.29ff99.svg#gbn"/></symbol><symbol id="x" overflow="visible"><use href="/assets/glyphs.29ff99.svg#g2f"/></symbol><symbol id="y" overflow="visible"><use href="/assets/glyphs.29ff99.svg#g50"/></symbol><symbol id="z" overflow="visible"><use href="/assets/glyphs.29ff99.svg#g4y"/></symbol><symbol id="A" overflow="visible"><use href="/assets/glyphs.29ff99.svg#g2p"/></symbol><symbol id="B" overflow="visible"><use href="/assets/glyphs.29ff99.svg#g2c"/></symbol><symbol id="C" overflow="visible"><use href="/assets/glyphs.29ff99.svg#g2g"/></symbol><symbol id="D" overflow="visible"><use href="/assets/glyphs.29ff99.svg#g3z"/></symbol><symbol id="E" overflow="visible"><use href="/assets/glyphs.29ff99.svg#g84"/></symbol><symbol id="F" overflow="visible"><use href="/assets/glyphs.29ff99.svg#g3y"/></symbol><symbol id="G" overflow="visible"><use href="/assets/glyphs.29ff99.svg#g2j"/></symbol><symbol id="H" overflow="visible"><use href="/assets/glyphs.29ff99.svg#g5s"/></symbol><symbol id="I" overflow="visible"><use href="/assets/glyphs.29ff99.svg#g3v"/></symbol><symbol id="J" overflow="visible"><use href="/assets/glyphs.29ff99.svg#g85"/></symbol><symbol id="K" overflow="visible"><use href="/assets/glyphs.29ff99.svg#g40"/></symbol><symbol id="L" overflow="visible"><use href="/assets/glyphs.29ff99.svg#g4e"/></symbol><symbol id="M" overflow="visible"><use href="/assets/glyphs.29ff99.svg#g1s"/></symbol><symbol id="N" overflow="visible"><use href="/assets/glyphs.29ff99.svg#g5p"/></symbol><symbol id="O" overflow="visible"><use href="/assets/glyphs.29ff99.svg#gcc"/></symbol><symbol id="P" overflow="visible"><use href="/assets/glyphs.29ff99.svg#g47"/></symbol><symbol id="Q" overflow="visible"><use href="/assets/glyphs.29ff99.svg#g5o"/></symbol><symbol id="R" overflow="visible"><use href="/assets/glyphs.29ff99.svg#g5j"/></symbol><symbol id="S" overflow="visible"><use href="/assets/glyphs.29ff99.svg#gp"/></symbol><symbol id="T" overflow="visible"><use href="/assets/glyphs.29ff99.svg#g1v"/></symbol><symbol id="U" overflow="visible"><use href="/assets/glyphs.29ff99.svg#g1t"/></symbol><symbol id="V" overflow="visible"><use href="/assets/glyphs.29ff99.svg#g4g"/></symbol><symbol id="W" overflow="visible"><use href="/assets/glyphs.29ff99.svg#g1h"/></symbol><symbol id="X" overflow="visible"><use href="/assets/glyphs.29ff99.svg#gu"/></symbol><symbol id="Y" overflow="visible"><use href="/assets/glyphs.29ff99.svg#gr"/></symbol><symbol id="Z" overflow="visible"><use href="/assets/glyphs.29ff99.svg#g49"/></symbol><symbol id="aa" overflow="visible"><use href="/assets/glyphs.29ff99.svg#g3q"/></symbol><symbol id="ab" overflow="visible"><use href="/assets/glyphs.29ff99.svg#g7k"/></symbol><symbol id="ac" overflow="visible"><use href="/assets/glyphs.29ff99.svg#g5e"/></symbol><symbol id="ad" overflow="visible"><use href="/assets/glyphs.29ff99.svg#ga5"/></symbol><symbol id="ae" overflow="visible"><use href="/assets/glyphs.29ff99.svg#g5i"/></symbol><symbol id="af" overflow="visible"><use href="/assets/glyphs.29ff99.svg#gbv"/></symbol><symbol id="ag" overflow="visible"><use href="/assets/glyphs.29ff99.svg#g69"/></symbol><symbol id="ah" overflow="visible"><use href="/assets/glyphs.29ff99.svg#g7n"/></symbol><symbol id="ai" overflow="visible"><use href="/assets/glyphs.29ff99.svg#g73"/></symbol><symbol id="aj" overflow="visible"><use href="/assets/glyphs.29ff99.svg#g5w"/></symbol><symbol id="ak" overflow="visible"><use href="/assets/glyphs.29ff99.svg#g6f"/></symbol><symbol id="al" overflow="visible"><use href="/assets/glyphs.29ff99.svg#g6a"/></symbol><symbol id="am" overflow="visible"><use href="/assets/glyphs.29ff99.svg#g90"/></symbol><symbol id="an" overflow="visible"><use href="/assets/glyphs.29ff99.svg#g60"/></symbol><symbol id="ao" overflow="visible"><use href="/assets/glyphs.29ff99.svg#g6h"/></symbol><symbol id="ap" overflow="visible"><use href="/assets/glyphs.29ff99.svg#g68"/></symbol><symbol id="aq" overflow="visible"><use href="/assets/glyphs.29ff99.svg#g6c"/></symbol><symbol id="ar" overflow="visible"><use href="/assets/glyphs.29ff99.svg#g7a"/></symbol><symbol id="as" overflow="visible"><use href="/assets/glyphs.29ff99.svg#g5u"/></symbol><symbol id="at" overflow="visible"><use href="/assets/glyphs.29ff99.svg#g5y"/></symbol><symbol id="au" overflow="visible"><use href="/assets/glyphs.29ff99.svg#g7g"/></symbol><symbol id="av" overflow="visible"><use href="/assets/glyphs.29ff99.svg#g7h"/></symbol><symbol id="aw" overflow="visible"><use href="/assets/glyphs.29ff99.svg#g7d"/></symbol><symbol id="ax" overflow="visible"><use href="/assets/glyphs.29ff99.svg#g6g"/></symbol><symbol id="ay" overflow="visible"><use href="/assets/glyphs.29ff99.svg#g77"/></symbol><symbol id="az" overflow="visible"><use href="/assets/glyphs.29ff99.svg#g5x"/></symbol><symbol id="aA" overflow="visible"><use href="/assets/glyphs.29ff99.svg#g6b"/></symbol><symbol id="aB" overflow="visible"><use href="/assets/glyphs.29ff99.svg#g61"/></symbol><symbol id="aC" overflow="visible"><use href="/assets/glyphs.29ff99.svg#g6n"/></symbol><symbol id="aD" overflow="visible"><use href="/assets/glyphs.29ff99.svg#ga9"/></symbol><symbol id="aE" overflow="visible"><use href="/assets/glyphs.29ff99.svg#g5z"/></symbol><symbol id="aF" overflow="visible"><use href="/assets/glyphs.29ff99.svg#gbw"/></symbol><symbol id="aG" overflow="visible"><use href="/assets/glyphs.29ff99.svg#g70"/></symbol><symbol id="aH" overflow="visible"><use href="/assets/glyphs.29ff99.svg#g6k"/></symbol><symbol id="aI" overflow="visible"><use href="/assets/glyphs.29ff99.svg#ga6"/></symbol><symbol id="aJ" overflow="visible"><use href="/assets/glyphs.29ff99.svg#gbu"/></symbol><symbol id="aK" overflow="visible"><use href="/assets/glyphs.29ff99.svg#g75"/></symbol><symbol id="aL" overflow="visible"><use href="/assets/glyphs.29ff99.svg#gam"/></symbol><symbol id="aM" overflow="visible"><use href="/assets/glyphs.29ff99.svg#g56"/></symbol><symbol id="aN" overflow="visible"><use href="/assets/glyphs.29ff99.svg#gax"/></symbol><symbol id="aO" overflow="visible"><use href="/assets/glyphs.29ff99.svg#g1nf"/></symbol><symbol id="aP" overflow="visible"><use href="/assets/glyphs.29ff99.svg#g1nc"/></symbol><symbol id="aQ" overflow="visible"><use href="/assets/glyphs.29ff99.svg#g3x"/></symbol><symbol id="aR" overflow="visible"><use href="/assets/glyphs.29ff99.svg#gcx"/></symbol><symbol id="aS" overflow="visible"><use href="/assets/glyphs.29ff99.svg#gan"/></symbol><symbol id="aT" overflow="visible"><use href="/assets/glyphs.29ff99.svg#g7x"/></symbol><symbol id="aU" overflow="visible"><use href="/assets/glyphs.29ff99.svg#g8l"/></symbol><symbol id="aV" overflow="visible"><use href="/assets/glyphs.29ff99.svg#g2r"/></symbol><symbol id="aW" overflow="visible"><use href="/assets/glyphs.29ff99.svg#g2s"/></symbol><symbol id="aX" overflow="visible"><use href="/assets/glyphs.29ff99.svg#g2t"/></symbol><symbol id="aY" overflow="visible"><use href="/assets/glyphs.29ff99.svg#g2u"/></symbol><symbol id="aZ" overflow="visible"><use href="/assets/glyphs.29ff99.svg#g2v"/></symbol><symbol id="ba" overflow="visible"><use href="/assets/glyphs.29ff99.svg#g2w"/></symbol><symbol id="bb" overflow="visible"><use href="/assets/glyphs.29ff99.svg#g2x"/></symbol><symbol id="bc" overflow="visible"><use href="/assets/glyphs.29ff99.svg#g2y"/></symbol><symbol id="bd" overflow="visible"><use href="/assets/glyphs.29ff99.svg#g2z"/></symbol><symbol id="be" overflow="visible"><use href="/assets/glyphs.29ff99.svg#g30"/></symbol><symbol id="bf" overflow="visible"><use href="/assets/glyphs.29ff99.svg#g31"/></symbol><symbol id="bg" overflow="visible"><use href="/assets/glyphs.29ff99.svg#g32"/></symbol><symbol id="bh" overflow="visible"><use href="/assets/glyphs.29ff99.svg#g33"/></symbol><symbol id="bi" overflow="visible"><use href="/assets/glyphs.29ff99.svg#g34"/></symbol><symbol id="bj" overflow="visible"><use href="/assets/glyphs.29ff99.svg#g35"/></symbol><symbol id="bk" overflow="visible"><use href="/assets/glyphs.29ff99.svg#g1nl"/></symbol></defs></svg>